<svg width="24" height="24" viewBox="0 0 24 24" fill="none" xmlns="http://www.w3.org/2000/svg">
<path d="M3.1167 12.0068C3.1167 12.3333 3.20801 12.6045 3.39062 12.8203C3.57324 13.0306 3.83057 13.1717 4.1626 13.2437C4.69938 13.3433 5.08122 13.5425 5.30811 13.8413C5.53499 14.1401 5.64844 14.6105 5.64844 15.2524V17.2031C5.64844 18.4538 5.94727 19.3641 6.54492 19.9341C7.14258 20.5096 8.05843 20.7974 9.29248 20.7974C9.48617 20.7974 9.66878 20.7752 9.84033 20.731C10.0783 20.6646 10.2554 20.5539 10.3716 20.3989C10.4878 20.2495 10.5459 20.0752 10.5459 19.876C10.5459 19.4499 10.3439 19.187 9.93994 19.0874C9.89014 19.0708 9.84033 19.057 9.79053 19.0459C9.74072 19.0404 9.68815 19.0348 9.63281 19.0293C8.99089 18.974 8.53988 18.7886 8.27979 18.4731C8.01969 18.1632 7.88965 17.6541 7.88965 16.9458V14.5303C7.88965 13.8053 7.6849 13.2354 7.27539 12.8203C6.87142 12.3997 6.31527 12.1507 5.60693 12.0732C5.5682 12.0732 5.54883 12.0566 5.54883 12.0234C5.54883 11.9847 5.5682 11.9626 5.60693 11.957C6.31527 11.8796 6.87142 11.6333 7.27539 11.2183C7.6849 10.8032 7.88965 10.2332 7.88965 9.5083V7.09277C7.88965 6.38444 8.01969 5.87533 8.27979 5.56543C8.53988 5.25 8.99089 5.06738 9.63281 5.01758C9.69922 5.00651 9.76286 4.99544 9.82373 4.98438C9.89014 4.97331 9.94824 4.95947 9.99805 4.94287C10.3633 4.83219 10.5459 4.5721 10.5459 4.1626C10.5459 3.95785 10.4906 3.78353 10.3799 3.63965C10.2692 3.49577 10.0977 3.38786 9.86523 3.31592C9.69368 3.26058 9.4834 3.23291 9.23438 3.23291C8.02246 3.23291 7.12044 3.52344 6.52832 4.10449C5.94173 4.68555 5.64844 5.59587 5.64844 6.83545V8.78613C5.64844 9.42253 5.53499 9.89014 5.30811 10.189C5.08122 10.4878 4.69938 10.687 4.1626 10.7866C3.83057 10.8586 3.57324 11.0024 3.39062 11.2183C3.20801 11.4285 3.1167 11.6914 3.1167 12.0068ZM20.4985 12.0068C20.4985 11.6914 20.4072 11.4285 20.2246 11.2183C20.0475 11.0024 19.7902 10.8586 19.4526 10.7866C18.9214 10.6815 18.5396 10.4823 18.3071 10.189C18.0747 9.89014 17.9585 9.42253 17.9585 8.78613V6.83545C17.9585 5.59587 17.6652 4.68555 17.0786 4.10449C16.492 3.52344 15.5928 3.23291 14.3809 3.23291C14.1374 3.23291 13.9299 3.26058 13.7583 3.31592C13.5203 3.38786 13.346 3.49577 13.2354 3.63965C13.1247 3.78353 13.0693 3.95785 13.0693 4.1626C13.0693 4.56104 13.2547 4.82113 13.6255 4.94287C13.6698 4.96501 13.7223 4.98161 13.7832 4.99268C13.8441 4.99821 13.9105 5.00651 13.9824 5.01758C14.6243 5.06185 15.0754 5.2417 15.3354 5.55713C15.5955 5.87256 15.7256 6.38444 15.7256 7.09277V9.5083C15.7256 10.2332 15.9276 10.8171 16.3315 11.2598C16.741 11.7025 17.3 11.9349 18.0083 11.957C18.047 11.9626 18.0664 11.9847 18.0664 12.0234C18.0664 12.0566 18.047 12.0732 18.0083 12.0732C17.3 12.1064 16.741 12.3416 16.3315 12.7788C15.9276 13.216 15.7256 13.7998 15.7256 14.5303V16.9458C15.7256 17.6541 15.5955 18.1632 15.3354 18.4731C15.0754 18.7886 14.6243 18.974 13.9824 19.0293C13.9271 19.0348 13.8745 19.0404 13.8247 19.0459C13.7749 19.057 13.7251 19.0708 13.6753 19.0874C13.4761 19.1372 13.3239 19.2257 13.2188 19.353C13.1191 19.4803 13.0693 19.6546 13.0693 19.876C13.0693 20.0807 13.1274 20.2606 13.2437 20.4155C13.3654 20.5705 13.5452 20.6756 13.7832 20.731C13.9492 20.7752 14.1291 20.7974 14.3228 20.7974C15.5623 20.7974 16.4782 20.5096 17.0703 19.9341C17.6624 19.3641 17.9585 18.4538 17.9585 17.2031V15.2524C17.9585 14.6105 18.0719 14.1401 18.2988 13.8413C18.5312 13.5425 18.9159 13.3433 19.4526 13.2437C19.7902 13.1717 20.0475 13.0306 20.2246 12.8203C20.4072 12.6045 20.4985 12.3333 20.4985 12.0068Z" fill="#393939"/>
</svg>
