<svg width="50" height="48" viewBox="0 0 50 48" fill="none" xmlns="http://www.w3.org/2000/svg">
<path d="M4.40624 21.3594C4.11457 21.6927 3.97395 22.0417 3.98436 22.4062C3.99478 22.7708 4.12499 23.0781 4.37499 23.3281C4.63541 23.5781 4.98436 23.7031 5.42186 23.7031H8.07811V29.8594C8.07811 30.2969 8.22916 30.6615 8.53124 30.9531C8.84374 31.2344 9.22395 31.375 9.67186 31.375C10.1094 31.375 10.4792 31.2344 10.7812 30.9531C11.0833 30.6615 11.2344 30.2969 11.2344 29.8594V23.7031H13.875C14.3333 23.7031 14.6875 23.5781 14.9375 23.3281C15.1979 23.0677 15.3281 22.7604 15.3281 22.4062C15.3281 22.0417 15.1875 21.6927 14.9062 21.3594L10.6406 16.5469C10.3594 16.224 10.0312 16.0625 9.65624 16.0625C9.28124 16.0521 8.94791 16.2135 8.65624 16.5469L4.40624 21.3594ZM18.6094 35.4688C18.6094 37.1979 19.0521 38.5104 19.9375 39.4062C20.8333 40.3021 22.1406 40.75 23.8594 40.75H40.5312C42.25 40.75 43.5521 40.3021 44.4375 39.4062C45.3333 38.5104 45.7812 37.1979 45.7812 35.4688V11.9844C45.7812 10.2656 45.3333 8.95312 44.4375 8.04688C43.5521 7.14062 42.25 6.6875 40.5312 6.6875H23.8594C22.1406 6.6875 20.8333 7.14062 19.9375 8.04688C19.0521 8.95312 18.6094 10.2656 18.6094 11.9844V35.4688ZM22.0781 35.1719V12.2812C22.0781 11.6042 22.2552 11.0833 22.6094 10.7188C22.9635 10.3542 23.5 10.1719 24.2187 10.1719H40.1875C40.9062 10.1719 41.4375 10.3542 41.7812 10.7188C42.1354 11.0833 42.3125 11.6042 42.3125 12.2812V35.1719C42.3125 35.8594 42.1354 36.3802 41.7812 36.7344C41.4375 37.099 40.9062 37.2812 40.1875 37.2812H24.2187C23.5 37.2812 22.9635 37.099 22.6094 36.7344C22.2552 36.3802 22.0781 35.8594 22.0781 35.1719ZM25.4375 31.4688H38.9375C39.3021 31.4688 39.5729 31.3594 39.75 31.1406C39.9375 30.9219 40.0312 30.6458 40.0312 30.3125C40.0312 29.8958 39.875 29.3542 39.5625 28.6875C39.25 28.0208 38.7708 27.3594 38.125 26.7031C37.4896 26.0365 36.6771 25.4792 35.6875 25.0312C34.7083 24.5729 33.5417 24.3438 32.1875 24.3438C30.8542 24.3438 29.6927 24.5729 28.7031 25.0312C27.7135 25.4792 26.8958 26.0365 26.25 26.7031C25.6146 27.3594 25.1406 28.0208 24.8281 28.6875C24.5156 29.3542 24.3594 29.8958 24.3594 30.3125C24.3594 30.6458 24.4479 30.9219 24.625 31.1406C24.8125 31.3594 25.0833 31.4688 25.4375 31.4688ZM32.1875 23.1406C32.9167 23.151 33.5781 22.9688 34.1719 22.5938C34.7656 22.2188 35.2396 21.7083 35.5937 21.0625C35.9479 20.4062 36.125 19.6719 36.125 18.8594C36.125 18.099 35.9479 17.401 35.5937 16.7656C35.2396 16.1198 34.7656 15.6094 34.1719 15.2344C33.5781 14.849 32.9167 14.6562 32.1875 14.6562C31.4687 14.6562 30.8125 14.849 30.2187 15.2344C29.625 15.6094 29.151 16.1198 28.7969 16.7656C28.4531 17.401 28.2812 18.099 28.2812 18.8594C28.2812 19.6719 28.4531 20.401 28.7969 21.0469C29.151 21.6927 29.625 22.2031 30.2187 22.5781C30.8125 22.9531 31.4687 23.1406 32.1875 23.1406Z" fill="#379544"/>
</svg>
