<svg width="40" height="48" viewBox="0 0 40 48" fill="none" xmlns="http://www.w3.org/2000/svg">
<path d="M8.96874 34.5626C10.0625 35.6563 11.1979 36.5782 12.375 37.3282C13.5521 38.0782 14.6979 38.6772 15.8125 39.1251C16.9375 39.5834 17.9687 39.9272 18.9062 40.1563C19.8542 40.3959 20.6354 40.5522 21.25 40.6251C21.8437 40.7084 22.3177 40.6251 22.6719 40.3751C23.0364 40.1251 23.2292 39.7605 23.25 39.2813C23.2708 38.8542 23.1562 38.4949 22.9062 38.2032C22.6667 37.9115 22.2917 37.7084 21.7812 37.5938C21.2083 37.4897 20.5052 37.3282 19.6719 37.1094C18.8489 36.8907 17.9531 36.5834 16.9844 36.1876C16.0156 35.8022 15.0312 35.2969 14.0312 34.6719C13.0312 34.0469 12.0781 33.2761 11.1719 32.3594C9.70311 30.8907 8.53124 29.2605 7.65624 27.4688C6.79166 25.6667 6.24999 23.8386 6.03124 21.9845C5.81249 20.1199 5.9427 18.349 6.42186 16.672C6.90103 14.9949 7.7552 13.5417 8.98436 12.3126C9.95311 11.3438 11.0573 10.6251 12.2969 10.1563C13.5364 9.68758 14.8333 9.43758 16.1875 9.40633C17.5521 9.36466 18.9062 9.5157 20.25 9.85945C21.6042 10.1928 22.8698 10.6772 24.0469 11.3126L26.3594 9.04695C24.776 8.08862 23.1042 7.36987 21.3437 6.8907C19.5833 6.41153 17.8229 6.2032 16.0625 6.2657C14.3021 6.3282 12.625 6.67716 11.0312 7.31258C9.43749 7.93758 8.02082 8.86987 6.78124 10.1095C5.59374 11.2865 4.67186 12.6511 4.01561 14.2032C3.35936 15.7449 2.96874 17.3855 2.84374 19.1251C2.71874 20.8647 2.85936 22.6355 3.26561 24.4376C3.68228 26.2397 4.36457 28.0053 5.31249 29.7344C6.26041 31.4636 7.47916 33.073 8.96874 34.5626ZM15.0469 29.7657C16.026 30.8074 17.1406 31.7084 18.3906 32.4688C19.6406 33.2188 20.9427 33.8022 22.2969 34.2188C23.6614 34.6355 25.0208 34.8542 26.375 34.8751C27.7292 34.8855 29.0156 34.6719 30.2344 34.2344C31.4635 33.7969 32.5469 33.1042 33.4844 32.1563C34.4531 31.1876 35.1614 30.0574 35.6094 28.7657C36.0677 27.474 36.2656 26.0886 36.2031 24.6094C36.151 23.1199 35.8437 21.599 35.2812 20.047C34.7292 18.4845 33.9219 16.9532 32.8594 15.4532L30.6094 17.7188C31.6094 19.1772 32.3229 20.6667 32.75 22.1876C33.1771 23.7084 33.276 25.1459 33.0469 26.5001C32.8177 27.8438 32.2239 28.9949 31.2656 29.9532C30.3906 30.8282 29.401 31.4115 28.2969 31.7032C27.1927 31.9844 26.0521 32.0261 24.875 31.8282C23.6979 31.6199 22.5521 31.224 21.4375 30.6407C20.3229 30.0469 19.3125 29.3126 18.4062 28.4376L15.0469 29.7657ZM17.875 26.9219L32.0312 12.7813L29.125 9.8907L14.9844 24.0157L13.5781 27.4688C13.4739 27.7188 13.5208 27.9376 13.7187 28.1251C13.9167 28.3126 14.1302 28.3594 14.3594 28.2657L17.875 26.9219ZM33.2031 11.6251L34.5781 10.2032C34.9427 9.81778 35.1354 9.38549 35.1562 8.90633C35.1875 8.41674 35.0208 7.98966 34.6562 7.62508L34.1562 7.1407C33.8333 6.8282 33.4323 6.69278 32.9531 6.73445C32.4844 6.7657 32.0677 6.95841 31.7031 7.31258L30.2969 8.71883L33.2031 11.6251Z" fill="#379544"/>
</svg>
