<svg width="24" height="24" viewBox="0 0 24 24" fill="none" xmlns="http://www.w3.org/2000/svg">
<path d="M12 12C12 11.1878 12.3227 10.4088 12.897 9.83449C13.4713 9.26016 14.2503 8.9375 15.0625 8.9375C15.8747 8.9375 16.6537 9.26016 17.228 9.83449C17.8023 10.4088 18.125 11.1878 18.125 12C18.125 12.8122 17.8023 13.5912 17.228 14.1655C16.6537 14.7398 15.8747 15.0625 15.0625 15.0625C14.2503 15.0625 13.4713 14.7398 12.897 14.1655C12.3227 13.5912 12 12.8122 12 12V12Z" fill="#1ABCFE"/>
<path d="M5.875 18.125C5.875 17.3128 6.19766 16.5338 6.77199 15.9595C7.34632 15.3852 8.12527 15.0625 8.9375 15.0625H12V18.125C12 18.9372 11.6773 19.7162 11.103 20.2905C10.5287 20.8648 9.74973 21.1875 8.9375 21.1875C8.12527 21.1875 7.34632 20.8648 6.77199 20.2905C6.19766 19.7162 5.875 18.9372 5.875 18.125Z" fill="#0ACF83"/>
<path d="M12 2.8125V8.9375H15.0625C15.8747 8.9375 16.6537 8.61484 17.228 8.04051C17.8023 7.46618 18.125 6.68723 18.125 5.875C18.125 5.06277 17.8023 4.28382 17.228 3.70949C16.6537 3.13516 15.8747 2.8125 15.0625 2.8125H12Z" fill="#FF7262"/>
<path d="M5.875 5.875C5.875 6.68723 6.19766 7.46618 6.77199 8.04051C7.34632 8.61484 8.12527 8.9375 8.9375 8.9375H12V2.8125H8.9375C8.12527 2.8125 7.34632 3.13516 6.77199 3.70949C6.19766 4.28382 5.875 5.06277 5.875 5.875Z" fill="#F24E1E"/>
<path d="M5.875 12C5.875 12.8122 6.19766 13.5912 6.77199 14.1655C7.34632 14.7398 8.12527 15.0625 8.9375 15.0625H12V8.9375H8.9375C8.12527 8.9375 7.34632 9.26016 6.77199 9.83449C6.19766 10.4088 5.875 11.1878 5.875 12Z" fill="#A259FF"/>
</svg>
