<svg width="24" height="24" viewBox="0 0 24 24" fill="none" xmlns="http://www.w3.org/2000/svg">
<path fill-rule="evenodd" clip-rule="evenodd" d="M5.45595 5.66281C6.10575 6.19075 6.34952 6.15047 7.56975 6.06905L19.0733 5.37831C19.3173 5.37831 19.1144 5.13492 19.033 5.09447L17.1226 3.71333C16.7565 3.42912 16.2688 3.10364 15.334 3.18506L4.1951 3.9975C3.78886 4.03778 3.70773 4.24089 3.8695 4.40369L5.45595 5.66281ZM6.1466 8.34372V20.4475C6.1466 21.098 6.47167 21.3413 7.2033 21.3011L19.8457 20.5696C20.5777 20.5293 20.6593 20.0819 20.6593 19.5535V7.53092C20.6593 7.00335 20.4563 6.71885 20.0082 6.75946L6.79677 7.53092C6.3092 7.5719 6.14656 7.81579 6.14656 8.34372H6.1466ZM18.6272 8.99299C18.7082 9.35891 18.6272 9.7245 18.2606 9.76564L17.6515 9.88701V18.8228C17.1226 19.107 16.6349 19.2695 16.2285 19.2695C15.5778 19.2695 15.4148 19.0663 14.9275 18.4574L10.943 12.2023V18.2543L12.2039 18.5388C12.2039 18.5388 12.2038 19.2695 11.1866 19.2695L8.38231 19.4322C8.30085 19.2695 8.38231 18.8637 8.66677 18.7824L9.39857 18.5796V10.5777L8.38252 10.4963C8.30101 10.1304 8.50397 9.60276 9.0735 9.56182L12.0819 9.35903L16.2285 15.6956V10.0901L15.1712 9.96876C15.0901 9.52142 15.4148 9.1966 15.8214 9.15633L18.6272 8.99299ZM3.25986 2.90089L14.8461 2.04764C16.2689 1.92561 16.635 2.00736 17.5293 2.65696L21.2278 5.25645C21.838 5.70346 22.0415 5.82516 22.0415 6.31245V20.5696C22.0415 21.4631 21.7159 21.9915 20.5779 22.0724L7.12278 22.8849C6.26851 22.9256 5.86194 22.8039 5.41456 22.2349L2.69094 18.7011C2.20295 18.0506 2 17.564 2 16.9947V4.32199C2 3.5913 2.3256 2.98178 3.25986 2.90089V2.90089Z" fill="#393939"/>
</svg>
