<svg width="24" height="24" viewBox="0 0 24 24" fill="none" xmlns="http://www.w3.org/2000/svg">
<path d="M0.48584 12.0068C0.48584 13.0804 0.698893 14.0184 1.125 14.8208C1.55664 15.6232 2.15706 16.2458 2.92627 16.6885C3.69548 17.1312 4.58919 17.3525 5.60742 17.3525C6.40983 17.3525 7.16243 17.1838 7.86523 16.8462C8.57357 16.5031 9.28467 15.9829 9.99854 15.2856L11.9077 13.4512L13.8003 15.2856C14.5197 15.9829 15.2308 16.5031 15.9336 16.8462C16.6419 17.1838 17.3945 17.3525 18.1914 17.3525C19.2096 17.3525 20.1034 17.1312 20.8726 16.6885C21.6418 16.2458 22.2394 15.6232 22.6655 14.8208C23.0972 14.0184 23.313 13.0804 23.313 12.0068C23.313 10.9277 23.0972 9.98975 22.6655 9.19287C22.2394 8.39046 21.6418 7.7679 20.8726 7.3252C20.1034 6.88249 19.2096 6.66113 18.1914 6.66113C17.3945 6.66113 16.6419 6.83268 15.9336 7.17578C15.2308 7.51335 14.5197 8.03076 13.8003 8.72803L11.9077 10.5625L9.99854 8.72803C9.28467 8.03076 8.57357 7.51335 7.86523 7.17578C7.16243 6.83268 6.40983 6.66113 5.60742 6.66113C4.58919 6.66113 3.69548 6.88249 2.92627 7.3252C2.15706 7.7679 1.55664 8.39046 1.125 9.19287C0.698893 9.98975 0.48584 10.9277 0.48584 12.0068ZM2.59424 12.0068C2.59424 11.3483 2.72152 10.7783 2.97607 10.2969C3.23063 9.81543 3.58203 9.44189 4.03027 9.17627C4.48405 8.91064 5.00977 8.77783 5.60742 8.77783C6.10547 8.77783 6.58691 8.89958 7.05176 9.14307C7.5166 9.38656 8.00635 9.74626 8.521 10.2222L10.4136 12.0068L8.5127 13.7915C8.00358 14.2674 7.5166 14.6271 7.05176 14.8706C6.58691 15.1141 6.10547 15.2358 5.60742 15.2358C5.00977 15.2358 4.48405 15.103 4.03027 14.8374C3.58203 14.5718 3.23063 14.1982 2.97607 13.7168C2.72152 13.2298 2.59424 12.6598 2.59424 12.0068ZM13.3853 12.0068L15.2778 10.2222C15.7925 9.74626 16.2822 9.38656 16.7471 9.14307C17.2119 8.89958 17.6934 8.77783 18.1914 8.77783C18.7891 8.77783 19.312 8.91064 19.7603 9.17627C20.214 9.44189 20.5682 9.81543 20.8228 10.2969C21.0773 10.7783 21.2046 11.3483 21.2046 12.0068C21.2046 12.6598 21.0773 13.2298 20.8228 13.7168C20.5682 14.1982 20.214 14.5718 19.7603 14.8374C19.312 15.103 18.7891 15.2358 18.1914 15.2358C17.6934 15.2358 17.2119 15.1141 16.7471 14.8706C16.2822 14.6271 15.7952 14.2674 15.2861 13.7915L13.3853 12.0068Z" fill="#393939"/>
</svg>
