<svg width="24" height="24" viewBox="0 0 24 24" fill="none" xmlns="http://www.w3.org/2000/svg">
<path d="M14.6914 7.30859C14.2764 7.30859 13.889 7.37223 13.5293 7.49951C13.1751 7.62679 12.8514 7.75407 12.5581 7.88135C12.2648 8.00309 12.0103 8.06396 11.7944 8.06396C11.5675 8.06396 11.3158 8.00586 11.0391 7.88965C10.7624 7.7679 10.4635 7.64893 10.1426 7.53271C9.82715 7.4165 9.48958 7.3584 9.12988 7.3584C8.44922 7.3584 7.79346 7.54378 7.1626 7.91455C6.53174 8.28532 6.01432 8.83317 5.61035 9.55811C5.20638 10.283 5.00439 11.1768 5.00439 12.2393C5.00439 12.9033 5.08187 13.5674 5.23682 14.2314C5.39176 14.8955 5.59928 15.5236 5.85938 16.1157C6.11947 16.7078 6.40723 17.2308 6.72266 17.6846C7.13216 18.2546 7.5306 18.7443 7.91797 19.1538C8.31087 19.5633 8.76465 19.7681 9.2793 19.7681C9.61686 19.7681 9.91016 19.7127 10.1592 19.6021C10.4082 19.4914 10.6711 19.3779 10.9478 19.2617C11.23 19.151 11.5814 19.0957 12.002 19.0957C12.3229 19.0957 12.5913 19.1289 12.8071 19.1953C13.0229 19.2617 13.2194 19.3364 13.3965 19.4194C13.5791 19.508 13.77 19.5854 13.9692 19.6519C14.1685 19.7183 14.4092 19.7515 14.6914 19.7515C15.0622 19.7515 15.3942 19.6519 15.6875 19.4526C15.9863 19.259 16.2603 19.0072 16.5093 18.6973C16.7638 18.3874 17.0101 18.0636 17.248 17.7261C17.5081 17.3442 17.7184 16.979 17.8789 16.6304C18.0449 16.2762 18.1667 15.9884 18.2441 15.7671C18.3216 15.5402 18.3631 15.4157 18.3687 15.3936C18.3521 15.388 18.2303 15.3271 18.0034 15.2109C17.7821 15.0892 17.5275 14.8983 17.2397 14.6382C16.9575 14.3781 16.7085 14.0378 16.4927 13.6172C16.2824 13.1966 16.1772 12.682 16.1772 12.0732C16.1772 11.542 16.2603 11.0854 16.4263 10.7036C16.5978 10.3162 16.797 9.99805 17.0239 9.74902C17.2508 9.49447 17.4528 9.30078 17.6299 9.16797C17.8125 9.03516 17.9176 8.96045 17.9453 8.94385C17.6686 8.54541 17.367 8.23551 17.0405 8.01416C16.714 7.79281 16.3931 7.63232 16.0776 7.53271C15.7622 7.43311 15.48 7.37223 15.231 7.3501C14.9875 7.32243 14.8076 7.30859 14.6914 7.30859ZM14.1104 5.96387C14.3649 5.65951 14.5724 5.30811 14.7329 4.90967C14.8934 4.5057 14.9736 4.09066 14.9736 3.66455C14.9736 3.54281 14.9653 3.4349 14.9487 3.34082C14.5337 3.35742 14.0993 3.48193 13.6455 3.71436C13.1973 3.94678 12.8265 4.2373 12.5332 4.58594C12.2952 4.85156 12.085 5.18359 11.9023 5.58203C11.7197 5.98047 11.6284 6.38997 11.6284 6.81055C11.6284 6.87695 11.6312 6.93783 11.6367 6.99316C11.6478 7.0485 11.6561 7.08724 11.6616 7.10938C11.7336 7.12598 11.8083 7.13428 11.8857 7.13428C12.2565 7.13428 12.6494 7.0236 13.0645 6.80225C13.485 6.58089 13.8337 6.30143 14.1104 5.96387Z" fill="#393939"/>
</svg>
