<svg width="71" height="30" viewBox="0 0 71 30" fill="none" xmlns="http://www.w3.org/2000/svg">
<path d="M0.5 27.9216H14.115V30H0.5V27.9216ZM0.5 23.9238H14.115V26.0069H0.5V23.9238ZM4.37406 19.9306H10.2191V22.0254H4.37406V19.9306ZM4.37406 15.9515H10.2191V18.0463H4.37406V15.9515ZM4.37406 11.9537H10.2191V14.0485H4.37406V11.9537ZM4.37406 7.96057H10.2191V10.0553H4.37406V7.96057ZM0.5 3.98145H14.115V6.07622H0.5V3.98145ZM0.5 7.62437e-07H14.115V2.0784H0.5V7.62437e-07ZM16.0509 26.0069H36.9809C37.3331 25.3616 37.6087 24.6579 37.7662 23.9238H16.0509V26.0069ZM35.3513 15.9515H19.9491V18.0463H36.9941C36.5597 17.259 36.0094 16.5517 35.3644 15.9515H35.3513ZM19.9359 11.9537V14.0485H35.3513C36.0141 13.4663 36.5478 12.7579 36.9941 11.9537H19.9359ZM36.9809 3.98145H16.0509V6.07622H37.7531C37.5836 5.34452 37.3239 4.64011 36.9809 3.98145ZM30.5562 7.62437e-07H16.0509V2.0784H35.5459C34.1856 0.741014 32.4046 -0.000868167 30.5562 7.62437e-07ZM19.9359 7.96057H25.77V10.0553H19.9359V7.96057ZM31.615 10.0553H37.7116C37.8852 9.37251 37.9734 8.66814 37.9741 7.96057H31.615V10.0553ZM19.9359 19.9306H25.77V22.0254H19.9359V19.9306ZM31.615 19.9306V22.0254H37.9741C37.9741 21.3053 37.88 20.6016 37.7116 19.9306H31.615ZM16.0509 29.9906L30.5431 30C32.4922 30 34.2444 29.2121 35.5569 27.9216H16.0509V29.9906ZM39.3959 27.9216H49.1019V30H39.3959V27.9216ZM39.3959 23.9238H49.1019V26.0069H39.3959V23.9238ZM43.27 19.9306H49.1041V22.0254H43.27V19.9306ZM43.27 15.9515H49.1041V18.0463H43.27V15.9515ZM51.8166 3.98145H39.3981V6.07622H52.4881L51.8166 3.98145ZM50.5259 7.62437e-07H39.3959V2.0784H51.1997L50.5259 7.62437e-07ZM60.77 27.9216H70.5V30H60.77V27.9216ZM60.77 23.9238H70.5V26.0069H60.77V23.9238ZM60.77 19.9306H66.6041V22.0254H60.77V19.9306ZM60.77 15.9515H66.6041V18.0463H60.77V15.9515ZM60.77 14.0485H66.6041V11.9537H55.4937L54.9359 13.6464L54.3912 11.9537H43.27V14.0485H49.1041V12.1244L49.7319 14.0485H60.1553L60.77 12.1244V14.0485ZM66.6041 7.96057H56.7844L56.1106 10.0553H66.6041V7.96057ZM59.37 7.62437e-07L58.6963 2.0784H70.5V7.62437e-07H59.37ZM54.9359 29.9906L55.6097 27.9216H54.2644L54.9359 29.9906ZM53.6497 26.0069H56.2331L56.9309 23.9238H52.965L53.6497 26.0069ZM52.3372 22.0254H57.5456L58.2281 19.9306H51.6547L52.3372 22.0254ZM51.04 18.0463H58.8559L59.5144 15.9515H50.3684L51.04 18.0463ZM43.27 10.0553H53.7766L53.1028 7.96057H43.27V10.0553ZM57.41 6.07622H70.5V3.98145H58.0684L57.41 6.07622Z" fill="white"/>
</svg>
