<svg width="70" height="30" viewBox="0 0 70 30" fill="none" xmlns="http://www.w3.org/2000/svg">
<path d="M0 27.9216H13.615V30H0V27.9216ZM0 23.9238H13.615V26.0069H0V23.9238ZM3.87406 19.9306H9.71906V22.0254H3.87406V19.9306ZM3.87406 15.9515H9.71906V18.0463H3.87406V15.9515ZM3.87406 11.9537H9.71906V14.0485H3.87406V11.9537ZM3.87406 7.96057H9.71906V10.0553H3.87406V7.96057ZM0 3.98145H13.615V6.07622H0V3.98145ZM0 7.62437e-07H13.615V2.0784H0V7.62437e-07ZM15.5509 26.0069H36.4809C36.8331 25.3616 37.1087 24.6579 37.2662 23.9238H15.5509V26.0069ZM34.8512 15.9515H19.4491V18.0463H36.4941C36.0597 17.259 35.5094 16.5517 34.8644 15.9515H34.8512ZM19.4359 11.9537V14.0485H34.8512C35.5141 13.4663 36.0478 12.7579 36.4941 11.9537H19.4359ZM36.4809 3.98145H15.5509V6.07622H37.2531C37.0836 5.34452 36.8239 4.64011 36.4809 3.98145ZM30.0562 7.62437e-07H15.5509V2.0784H35.0459C33.6856 0.741014 31.9046 -0.000868167 30.0562 7.62437e-07ZM19.4359 7.96057H25.27V10.0553H19.4359V7.96057ZM31.115 10.0553H37.2116C37.3852 9.37251 37.4734 8.66814 37.4741 7.96057H31.115V10.0553ZM19.4359 19.9306H25.27V22.0254H19.4359V19.9306ZM31.115 19.9306V22.0254H37.4741C37.4741 21.3053 37.38 20.6016 37.2116 19.9306H31.115ZM15.5509 29.9907L30.0431 30C31.9922 30 33.7444 29.2121 35.0569 27.9216H15.5509V29.9907ZM38.8959 27.9216H48.6019V30H38.8959V27.9216ZM38.8959 23.9238H48.6019V26.0069H38.8959V23.9238ZM42.77 19.9306H48.6041V22.0254H42.77V19.9306ZM42.77 15.9515H48.6041V18.0463H42.77V15.9515ZM51.3166 3.98145H38.8981V6.07622H51.9881L51.3166 3.98145ZM50.0259 7.62437e-07H38.8959V2.0784H50.6997L50.0259 7.62437e-07ZM60.27 27.9216H70V30H60.27V27.9216ZM60.27 23.9238H70V26.0069H60.27V23.9238ZM60.27 19.9306H66.1041V22.0254H60.27V19.9306ZM60.27 15.9515H66.1041V18.0463H60.27V15.9515ZM60.27 14.0485H66.1041V11.9537H54.9937L54.4359 13.6464L53.8913 11.9537H42.77V14.0485H48.6041V12.1244L49.2319 14.0485H59.6553L60.27 12.1244V14.0485ZM66.1041 7.96057H56.2844L55.6106 10.0553H66.1041V7.96057ZM58.87 7.62437e-07L58.1963 2.0784H70V7.62437e-07H58.87ZM54.4359 29.9907L55.1097 27.9216H53.7644L54.4359 29.9907ZM53.1497 26.0069H55.7331L56.4309 23.9238H52.465L53.1497 26.0069ZM51.8372 22.0254H57.0456L57.7281 19.9306H51.1547L51.8372 22.0254ZM50.54 18.0463H58.3559L59.0144 15.9515H49.8684L50.54 18.0463ZM42.77 10.0553H53.2766L52.6028 7.96057H42.77V10.0553ZM56.91 6.07622H70V3.98145H57.5684L56.91 6.07622Z" fill="#0F62FE"/>
</svg>
