<svg width="32" height="32" viewBox="0 0 32 32" fill="none" xmlns="http://www.w3.org/2000/svg">
<path d="M15.8906 11.875C16.5859 11.875 17.1719 11.793 17.6484 11.6289C18.1328 11.4648 18.5469 11.2617 18.8906 11.0195C19.2344 10.7773 19.5391 10.5352 19.8047 10.293C20.0781 10.0508 20.3516 9.84766 20.625 9.68359C20.8984 9.51953 21.207 9.4375 21.5508 9.4375C21.9023 9.4375 22.2109 9.51953 22.4766 9.68359C22.7422 9.84766 23.0078 10.0508 23.2734 10.293C23.5469 10.5352 23.8633 10.7773 24.2227 11.0195C24.582 11.2617 25.0195 11.4648 25.5352 11.6289C26.0586 11.793 26.7109 11.875 27.4922 11.875H27.5859C27.9141 11.875 28.1953 11.7578 28.4297 11.5234C28.6641 11.2891 28.7812 11.0039 28.7812 10.668C28.7812 10.3477 28.6641 10.0703 28.4297 9.83594C28.1953 9.60156 27.9141 9.48438 27.5859 9.48438H27.4922C26.9766 9.48438 26.5234 9.39062 26.1328 9.20312C25.75 9.00781 25.3125 8.73438 24.8203 8.38281C24.4297 8.09375 23.9648 7.80078 23.4258 7.50391C22.8945 7.20703 22.2695 7.05859 21.5508 7.05859C20.8242 7.05859 20.1914 7.21094 19.6523 7.51562C19.1133 7.82031 18.6484 8.12109 18.2578 8.41797C17.8438 8.72266 17.4609 8.97656 17.1094 9.17969C16.7656 9.38281 16.3594 9.48438 15.8906 9.48438C15.4141 9.48438 15 9.38281 14.6484 9.17969C14.3047 8.97656 13.9258 8.72266 13.5117 8.41797C13.1289 8.12109 12.668 7.82031 12.1289 7.51562C11.5898 7.21094 10.9531 7.05859 10.2188 7.05859C9.5 7.05859 8.87109 7.20703 8.33203 7.50391C7.80078 7.80078 7.33984 8.09375 6.94922 8.38281C6.45703 8.73438 6.01562 9.00781 5.625 9.20312C5.23438 9.39062 4.78516 9.48438 4.27734 9.48438H4.18359C3.85547 9.48438 3.57422 9.60156 3.33984 9.83594C3.10547 10.0703 2.98828 10.3477 2.98828 10.668C2.98828 11.0039 3.10547 11.2891 3.33984 11.5234C3.57422 11.7578 3.85547 11.875 4.18359 11.875H4.27734C5.05078 11.875 5.69922 11.793 6.22266 11.6289C6.75391 11.4648 7.19531 11.2617 7.54688 11.0195C7.90625 10.7773 8.21875 10.5352 8.48438 10.293C8.75781 10.0508 9.02734 9.84766 9.29297 9.68359C9.55859 9.51953 9.86719 9.4375 10.2188 9.4375C10.5703 9.4375 10.8789 9.51953 11.1445 9.68359C11.418 9.84766 11.6914 10.0508 11.9648 10.293C12.2383 10.5352 12.543 10.7773 12.8789 11.0195C13.2227 11.2617 13.6328 11.4648 14.1094 11.6289C14.5938 11.793 15.1875 11.875 15.8906 11.875ZM15.8906 18.9297C16.5859 18.9297 17.1719 18.8477 17.6484 18.6836C18.1328 18.5195 18.5469 18.3203 18.8906 18.0859C19.2344 17.8438 19.5391 17.6016 19.8047 17.3594C20.0781 17.1172 20.3516 16.9141 20.625 16.75C20.8984 16.5859 21.207 16.5039 21.5508 16.5039C21.9023 16.5039 22.2109 16.5859 22.4766 16.75C22.7422 16.9141 23.0078 17.1172 23.2734 17.3594C23.5469 17.6016 23.8633 17.8438 24.2227 18.0859C24.582 18.3203 25.0195 18.5195 25.5352 18.6836C26.0586 18.8477 26.7109 18.9297 27.4922 18.9297H27.5859C27.9141 18.9297 28.1953 18.8164 28.4297 18.5898C28.6641 18.3555 28.7812 18.0703 28.7812 17.7344C28.7812 17.4062 28.6641 17.1289 28.4297 16.9023C28.1953 16.668 27.9141 16.5508 27.5859 16.5508H27.4922C26.9766 16.5508 26.5234 16.4531 26.1328 16.2578C25.75 16.0625 25.3125 15.7891 24.8203 15.4375C24.4297 15.1562 23.9648 14.8672 23.4258 14.5703C22.8945 14.2734 22.2695 14.125 21.5508 14.125C20.8242 14.125 20.1914 14.2773 19.6523 14.582C19.1133 14.8867 18.6484 15.1836 18.2578 15.4727C17.8438 15.7852 17.4609 16.043 17.1094 16.2461C16.7656 16.4492 16.3594 16.5508 15.8906 16.5508C15.4141 16.5508 15 16.4492 14.6484 16.2461C14.3047 16.043 13.9258 15.7852 13.5117 15.4727C13.1289 15.1836 12.668 14.8867 12.1289 14.582C11.5898 14.2773 10.9531 14.125 10.2188 14.125C9.5 14.125 8.87109 14.2734 8.33203 14.5703C7.80078 14.8672 7.33984 15.1562 6.94922 15.4375C6.45703 15.7891 6.01562 16.0625 5.625 16.2578C5.23438 16.4531 4.78516 16.5508 4.27734 16.5508H4.18359C3.85547 16.5508 3.57422 16.668 3.33984 16.9023C3.10547 17.1289 2.98828 17.4062 2.98828 17.7344C2.98828 18.0703 3.10547 18.3555 3.33984 18.5898C3.57422 18.8164 3.85547 18.9297 4.18359 18.9297H4.27734C5.05078 18.9297 5.69922 18.8477 6.22266 18.6836C6.75391 18.5195 7.19531 18.3203 7.54688 18.0859C7.90625 17.8438 8.21875 17.6016 8.48438 17.3594C8.75781 17.1172 9.02734 16.9141 9.29297 16.75C9.55859 16.5859 9.86719 16.5039 10.2188 16.5039C10.5703 16.5039 10.8789 16.5859 11.1445 16.75C11.418 16.9141 11.6914 17.1172 11.9648 17.3594C12.2383 17.6016 12.543 17.8438 12.8789 18.0859C13.2227 18.3203 13.6328 18.5195 14.1094 18.6836C14.5938 18.8477 15.1875 18.9297 15.8906 18.9297ZM15.8906 25.9961C16.5859 25.9961 17.1719 25.9141 17.6484 25.75C18.1328 25.5859 18.5469 25.3828 18.8906 25.1406C19.2344 24.8984 19.5391 24.6602 19.8047 24.4258C20.0781 24.1836 20.3516 23.9805 20.625 23.8164C20.8984 23.6523 21.207 23.5703 21.5508 23.5703C21.9023 23.5703 22.2109 23.6523 22.4766 23.8164C22.7422 23.9805 23.0078 24.1836 23.2734 24.4258C23.5469 24.6602 23.8633 24.8984 24.2227 25.1406C24.582 25.3828 25.0195 25.5859 25.5352 25.75C26.0586 25.9141 26.7109 25.9961 27.4922 25.9961H27.5859C27.9141 25.9961 28.1953 25.8789 28.4297 25.6445C28.6641 25.4102 28.7812 25.1289 28.7812 24.8008C28.7812 24.4727 28.6641 24.1953 28.4297 23.9688C28.1953 23.7344 27.9141 23.6172 27.5859 23.6172H27.4922C26.9766 23.6172 26.5234 23.5195 26.1328 23.3242C25.75 23.1289 25.3125 22.8555 24.8203 22.5039C24.4297 22.2227 23.9648 21.9336 23.4258 21.6367C22.8945 21.3398 22.2695 21.1914 21.5508 21.1914C20.8242 21.1914 20.1914 21.3438 19.6523 21.6484C19.1133 21.9531 18.6484 22.25 18.2578 22.5391C17.8438 22.8516 17.4609 23.1094 17.1094 23.3125C16.7656 23.5156 16.3594 23.6172 15.8906 23.6172C15.4141 23.6172 15 23.5156 14.6484 23.3125C14.3047 23.1094 13.9258 22.8516 13.5117 22.5391C13.1289 22.25 12.668 21.9531 12.1289 21.6484C11.5898 21.3438 10.9531 21.1914 10.2188 21.1914C9.5 21.1914 8.87109 21.3398 8.33203 21.6367C7.80078 21.9336 7.33984 22.2227 6.94922 22.5039C6.45703 22.8555 6.01562 23.1289 5.625 23.3242C5.23438 23.5195 4.78516 23.6172 4.27734 23.6172H4.18359C3.85547 23.6172 3.57422 23.7344 3.33984 23.9688C3.10547 24.1953 2.98828 24.4727 2.98828 24.8008C2.98828 25.1289 3.10547 25.4102 3.33984 25.6445C3.57422 25.8789 3.85547 25.9961 4.18359 25.9961H4.27734C5.05078 25.9961 5.69922 25.9141 6.22266 25.75C6.75391 25.5859 7.19531 25.3828 7.54688 25.1406C7.90625 24.8984 8.21875 24.6602 8.48438 24.4258C8.75781 24.1836 9.02734 23.9805 9.29297 23.8164C9.55859 23.6523 9.86719 23.5703 10.2188 23.5703C10.5703 23.5703 10.8789 23.6523 11.1445 23.8164C11.418 23.9805 11.6914 24.1836 11.9648 24.4258C12.2383 24.6602 12.543 24.8984 12.8789 25.1406C13.2227 25.3828 13.6328 25.5859 14.1094 25.75C14.5938 25.9141 15.1875 25.9961 15.8906 25.9961Z" fill="#379544"/>
</svg>
