<svg width="55" height="48" viewBox="0 0 55 48" fill="none" xmlns="http://www.w3.org/2000/svg">
<path d="M3.98438 34.9062C3.98438 35.5 4.19271 36.0052 4.60938 36.4219C5.03646 36.849 5.54167 37.0625 6.125 37.0625H48.5469C49.1406 37.0625 49.6458 36.849 50.0625 36.4219C50.4896 36.0052 50.7031 35.5 50.7031 34.9062C50.7031 34.3229 50.4896 33.8229 50.0625 33.4062C49.6458 32.9792 49.1406 32.7656 48.5469 32.7656H45.3281V14.4219C45.3281 13.1198 44.9792 12.125 44.2812 11.4375C43.5833 10.75 42.5833 10.4062 41.2812 10.4062H13.4062C12.1458 10.4062 11.151 10.75 10.4219 11.4375C9.70312 12.125 9.34375 13.1198 9.34375 14.4219V32.7656H6.125C5.54167 32.7656 5.03646 32.9792 4.60938 33.4062C4.19271 33.8229 3.98438 34.3229 3.98438 34.9062ZM12.8281 32.7656V15.2969C12.8281 14.8177 12.9479 14.4635 13.1875 14.2344C13.4271 13.9948 13.7812 13.875 14.25 13.875H40.4375C40.9062 13.875 41.2604 13.9948 41.5 14.2344C41.7396 14.4635 41.8594 14.8177 41.8594 15.2969V32.7656H12.8281Z" fill="#379544"/>
</svg>
