<svg width="45" height="48" viewBox="0 0 45 48" fill="none" xmlns="http://www.w3.org/2000/svg">
<path d="M8.8125 42.1562H15.0625C16.5833 42.1562 17.75 41.7552 18.5625 40.9531C19.375 40.1615 19.7812 39.0156 19.7812 37.5156V9.89062C19.7812 8.40104 19.375 7.25521 18.5625 6.45312C17.75 5.65104 16.5833 5.25 15.0625 5.25H8.8125C7.26042 5.25 6.06771 5.65104 5.23438 6.45312C4.40104 7.25521 3.98438 8.40104 3.98438 9.89062V37.5156C3.98438 39.0156 4.40104 40.1615 5.23438 40.9531C6.06771 41.7552 7.26042 42.1562 8.8125 42.1562ZM8.89062 38.7969C8.45312 38.7969 8.08333 38.6562 7.78125 38.375C7.48958 38.1042 7.34375 37.7552 7.34375 37.3281V10.0781C7.34375 9.65104 7.48958 9.30208 7.78125 9.03125C8.08333 8.75 8.45312 8.60938 8.89062 8.60938H14.9688C15.3854 8.60938 15.7292 8.75 16 9.03125C16.2812 9.30208 16.4219 9.65104 16.4219 10.0781V37.3281C16.4219 37.7552 16.2812 38.1042 16 38.375C15.7292 38.6562 15.3854 38.7969 14.9688 38.7969H8.89062ZM5.34375 19.7969H18.4219V16.4375H5.34375V19.7969ZM5.34375 30.9688H18.4219V27.6094H5.34375V30.9688ZM17.5625 11.3594L19.0469 15.4844L21.6875 10.9219C21.8958 10.5573 22.1979 10.3281 22.5938 10.2344C22.9896 10.1406 23.3854 10.2083 23.7812 10.4375L29.0312 13.4688C29.3958 13.6771 29.625 13.9688 29.7188 14.3438C29.8125 14.7188 29.7552 15.0938 29.5469 15.4688L16.1719 38.625L19.125 40.25L32.5469 16.9844C33.2969 15.6927 33.5156 14.5 33.2031 13.4062C32.901 12.3021 32.0938 11.375 30.7812 10.625L25.3594 7.48438C24.026 6.70312 22.7969 6.45312 21.6719 6.73438C20.5573 7.00521 19.625 7.78646 18.875 9.07812L17.5625 11.3594ZM19.2188 20.7031L26.4219 24.875L28.0938 21.9688L19.2188 16.8438V20.7031ZM18.75 33.3438L20.8281 34.5625L22.5156 31.6406L18.8906 29.5469L18.75 33.3438ZM31.0938 15.4062L29.9844 19.7969L31.75 18.7969C32.1146 18.5781 32.4896 18.526 32.875 18.6406C33.2708 18.7552 33.5781 19.0104 33.7969 19.4062L36.8281 24.6562C37.0365 25.0208 37.0885 25.3958 36.9844 25.7812C36.8906 26.1562 36.6615 26.4479 36.2969 26.6562L21.5469 35.1562L18.4375 40.8281L38.1406 29.4688C39.4219 28.7188 40.2031 27.7917 40.4844 26.6875C40.776 25.5729 40.5469 24.3646 39.7969 23.0625L36.6562 17.6562C36.0104 16.5208 35.2344 15.7448 34.3281 15.3281C33.4323 14.9115 32.4688 14.8854 31.4375 15.25L31.0938 15.4062ZM25.6406 27.625L28.875 33.2344L31.7812 31.5625L27.5938 24.2969L25.6406 27.625Z" fill="#379544"/>
</svg>
