<svg width="46" height="48" viewBox="0 0 46 48" fill="none" xmlns="http://www.w3.org/2000/svg">
<path d="M32.0625 37.0625V22.0781C32.0625 20.7865 31.7083 19.7969 31 19.1094C30.3021 18.4115 29.2969 18.0625 27.9844 18.0625H5.70312V20.8594H27.6875C28.1875 20.8594 28.5729 21 28.8438 21.2812C29.1146 21.5521 29.25 21.9427 29.25 22.4531V37.0625H32.0625ZM23.2656 19.0156H20.4531V37.0625H23.2656V19.0156ZM9.28125 38.4688H35.8281C37.5573 38.4688 38.8698 38.0208 39.7656 37.125C40.6615 36.2292 41.1094 34.9323 41.1094 33.2344V14.25C41.1094 12.5417 40.6615 11.2396 39.7656 10.3438C38.8698 9.44792 37.5573 9 35.8281 9H9.28125C7.55208 9 6.23438 9.44792 5.32812 10.3438C4.43229 11.2292 3.98438 12.5312 3.98438 14.25V33.2344C3.98438 34.9323 4.43229 36.2292 5.32812 37.125C6.23438 38.0208 7.55208 38.4688 9.28125 38.4688ZM9.5625 34.9844C8.875 34.9844 8.34896 34.8125 7.98438 34.4688C7.63021 34.1146 7.45312 33.5781 7.45312 32.8594V14.6094C7.45312 13.8906 7.63021 13.3542 7.98438 13C8.34896 12.6458 8.875 12.4688 9.5625 12.4688H35.5312C36.2083 12.4688 36.7292 12.6458 37.0938 13C37.4583 13.3542 37.6406 13.8906 37.6406 14.6094V32.8594C37.6406 33.5781 37.4583 34.1146 37.0938 34.4688C36.7292 34.8125 36.2083 34.9844 35.5312 34.9844H9.5625Z" fill="#379544"/>
</svg>
