<svg width="47" height="48" viewBox="0 0 47 48" fill="none" xmlns="http://www.w3.org/2000/svg">
<path d="M29.3906 12.0781C29.7344 12.0781 29.9219 11.901 29.9531 11.5469C30.0573 10.6615 30.1667 9.96875 30.2812 9.46875C30.4062 8.95833 30.599 8.57292 30.8594 8.3125C31.1198 8.05208 31.5104 7.85417 32.0312 7.71875C32.5521 7.58333 33.2656 7.44271 34.1719 7.29688C34.5365 7.25521 34.7188 7.07292 34.7188 6.75C34.7188 6.44792 34.5573 6.27083 34.2344 6.21875C33.3177 6.04167 32.5938 5.88542 32.0625 5.75C31.5312 5.60417 31.1302 5.40625 30.8594 5.15625C30.599 4.90625 30.4062 4.53646 30.2812 4.04688C30.1667 3.55729 30.0573 2.86458 29.9531 1.96875C29.9219 1.625 29.7344 1.45312 29.3906 1.45312C29.0677 1.45312 28.8906 1.61979 28.8594 1.95312C28.7448 2.85938 28.625 3.57292 28.5 4.09375C28.3854 4.61458 28.1979 5.00521 27.9375 5.26562C27.6771 5.52604 27.2812 5.71875 26.75 5.84375C26.2292 5.96875 25.5 6.09375 24.5625 6.21875C24.4167 6.23958 24.2969 6.30208 24.2031 6.40625C24.1198 6.5 24.0781 6.61458 24.0781 6.75C24.0781 7.0625 24.2396 7.24479 24.5625 7.29688C25.5 7.48438 26.2292 7.65104 26.75 7.79688C27.2812 7.94271 27.6719 8.14062 27.9219 8.39062C28.1823 8.64062 28.375 9.01562 28.5 9.51562C28.625 10.0052 28.7448 10.6979 28.8594 11.5938C28.8802 11.7292 28.9375 11.8438 29.0312 11.9375C29.1354 12.0312 29.2552 12.0781 29.3906 12.0781ZM18.2812 7.92188C18.4896 7.92188 18.6198 7.80729 18.6719 7.57812C18.7969 6.82812 18.9167 6.29167 19.0312 5.96875C19.1458 5.63542 19.3646 5.41146 19.6875 5.29688C20.0208 5.17188 20.5729 5.03646 21.3438 4.89062C21.5833 4.83854 21.7031 4.70833 21.7031 4.5C21.7031 4.28125 21.5885 4.14583 21.3594 4.09375C20.776 3.98958 20.3229 3.89062 20 3.79688C19.6875 3.70312 19.4531 3.57812 19.2969 3.42188C19.1406 3.26562 19.0208 3.03125 18.9375 2.71875C18.8646 2.40625 18.776 1.97396 18.6719 1.42188C18.6198 1.19271 18.4896 1.07812 18.2812 1.07812C18.0521 1.07812 17.9219 1.19271 17.8906 1.42188C17.776 1.98438 17.6771 2.42188 17.5938 2.73438C17.5208 3.04688 17.4062 3.28646 17.25 3.45312C17.0938 3.60938 16.8542 3.73438 16.5312 3.82812C16.2188 3.91146 15.7708 4 15.1875 4.09375C14.9479 4.14583 14.8281 4.28125 14.8281 4.5C14.8281 4.70833 14.9479 4.83854 15.1875 4.89062C15.7708 5.00521 16.2188 5.10938 16.5312 5.20312C16.8542 5.28646 17.0938 5.40625 17.25 5.5625C17.4062 5.71875 17.526 5.95833 17.6094 6.28125C17.6927 6.59375 17.7865 7.03125 17.8906 7.59375C17.9219 7.8125 18.0521 7.92188 18.2812 7.92188ZM8.60938 44.0312C8.88021 44.0312 9.04167 43.8802 9.09375 43.5781C9.21875 42.8177 9.33333 42.2188 9.4375 41.7812C9.55208 41.3542 9.71875 41.0312 9.9375 40.8125C10.1562 40.5938 10.4844 40.4219 10.9219 40.2969C11.3698 40.1719 11.9896 40.0365 12.7812 39.8906C13.0833 39.8281 13.2344 39.6667 13.2344 39.4062C13.2344 39.1458 13.0938 38.9844 12.8125 38.9219C12.0104 38.7656 11.3854 38.6198 10.9375 38.4844C10.5 38.3594 10.1719 38.1875 9.95312 37.9688C9.73438 37.75 9.56771 37.4271 9.45312 37C9.34896 36.5729 9.22917 35.9844 9.09375 35.2344C9.04167 34.9323 8.88021 34.7812 8.60938 34.7812C8.35938 34.7812 8.20312 34.9323 8.14062 35.2344C7.99479 35.9948 7.86458 36.5885 7.75 37.0156C7.64583 37.4531 7.48438 37.7812 7.26562 38C7.05729 38.2292 6.73438 38.4062 6.29688 38.5312C5.85938 38.6562 5.23958 38.7865 4.4375 38.9219C4.14583 38.974 4 39.1354 4 39.4062C4 39.6667 4.14062 39.8281 4.42188 39.8906C5.23438 40.0469 5.85938 40.1875 6.29688 40.3125C6.74479 40.4479 7.07292 40.625 7.28125 40.8438C7.5 41.0625 7.66146 41.3854 7.76562 41.8125C7.86979 42.2396 7.99479 42.8333 8.14062 43.5938C8.20312 43.8854 8.35938 44.0312 8.60938 44.0312ZM33.8906 39.2188C36.0052 37.125 37.2344 34.7865 37.5781 32.2031C37.9219 29.6094 37.3854 26.8177 35.9688 23.8281L32.3906 16.2656C32.1198 15.7031 31.7865 15.2292 31.3906 14.8438C30.7344 14.1875 29.9688 13.8594 29.0938 13.8594C28.2292 13.849 27.4688 14.1771 26.8125 14.8438C26.4062 15.2396 26.1354 15.724 26 16.2969C25.875 16.8698 25.9323 17.4635 26.1719 18.0781L26.9062 19.8438C26.9271 19.9062 26.9219 19.9531 26.8906 19.9844C26.8385 20.0365 26.7812 20.0312 26.7188 19.9688L18.4688 11.7188C17.7292 10.9792 16.9167 10.6146 16.0312 10.625C15.1458 10.625 14.3438 10.9896 13.625 11.7188C13.4167 11.9167 13.25 12.1354 13.125 12.375C13.0104 12.6146 12.9375 12.8594 12.9062 13.1094C12.2188 12.6927 11.5208 12.526 10.8125 12.6094C10.1042 12.6823 9.46354 13.0104 8.89062 13.5938C8.32812 14.1562 8.00521 14.7969 7.92188 15.5156C7.83854 16.224 8 16.9115 8.40625 17.5781C7.91667 17.6406 7.48438 17.8542 7.10938 18.2188C6.44271 18.8958 6.10938 19.6615 6.10938 20.5156C6.10938 21.3594 6.44792 22.1198 7.125 22.7969L8.03125 23.6875C7.79167 23.7083 7.55208 23.7812 7.3125 23.9062C7.07292 24.0208 6.85417 24.1771 6.65625 24.375C5.97917 25.0417 5.65104 25.8177 5.67188 26.7031C5.69271 27.5781 6.05729 28.3698 6.76562 29.0781L16.5625 38.8594C18.375 40.6719 20.2969 41.8854 22.3281 42.5C24.3594 43.125 26.3698 43.1615 28.3594 42.6094C30.349 42.0573 32.1927 40.9271 33.8906 39.2188ZM31.7188 37.1875C30.3958 38.5104 28.9792 39.3802 27.4688 39.7969C25.9688 40.2135 24.4375 40.1615 22.875 39.6406C21.3229 39.1302 19.8125 38.1354 18.3438 36.6562L9 27.3125C8.8125 27.125 8.71354 26.9167 8.70312 26.6875C8.69271 26.4479 8.78125 26.2344 8.96875 26.0469C9.15625 25.8698 9.36979 25.7812 9.60938 25.7812C9.85938 25.7812 10.0781 25.8698 10.2656 26.0469L15.9844 31.7812C16.2448 32.0312 16.5469 32.151 16.8906 32.1406C17.2448 32.1302 17.5417 32.0052 17.7812 31.7656C18.0208 31.5156 18.1458 31.2188 18.1562 30.875C18.1771 30.5208 18.0573 30.2188 17.7969 29.9688L9.20312 21.3594C9.01562 21.1719 8.91667 20.9635 8.90625 20.7344C8.89583 20.4948 8.98438 20.2812 9.17188 20.0938C9.35938 19.9062 9.57292 19.8125 9.8125 19.8125C10.0625 19.8125 10.2812 19.9115 10.4688 20.1094L18.4844 28.1094C18.7344 28.3698 19.0312 28.4948 19.375 28.4844C19.7292 28.474 20.0312 28.3438 20.2812 28.0938C20.5208 27.8542 20.6458 27.5625 20.6562 27.2188C20.6667 26.8646 20.5469 26.5573 20.2969 26.2969L10.875 16.8594C10.6771 16.6823 10.5729 16.474 10.5625 16.2344C10.5625 15.9844 10.6562 15.7656 10.8438 15.5781C11.0208 15.3906 11.2292 15.3021 11.4688 15.3125C11.7188 15.3229 11.9427 15.4219 12.1406 15.6094L21.3438 24.8281C21.5938 25.0677 21.8906 25.1875 22.2344 25.1875C22.5885 25.1771 22.8854 25.0469 23.125 24.7969C23.3854 24.5469 23.5156 24.25 23.5156 23.9062C23.526 23.5521 23.4062 23.25 23.1562 23L15.3594 15.2031C15.1719 15.0156 15.0729 14.8073 15.0625 14.5781C15.0625 14.3385 15.1562 14.125 15.3438 13.9375C15.5208 13.75 15.7292 13.6562 15.9688 13.6562C16.2188 13.6562 16.4375 13.7552 16.625 13.9531L27.7188 25.0469C28.0729 25.3906 28.4427 25.5573 28.8281 25.5469C29.2135 25.526 29.5469 25.375 29.8281 25.0938C30.0573 24.8542 30.2135 24.5677 30.2969 24.2344C30.3802 23.901 30.3385 23.5208 30.1719 23.0938L28.2031 17.9219C28.0885 17.6302 28.0781 17.375 28.1719 17.1562C28.2656 16.9271 28.4219 16.7656 28.6406 16.6719C28.8698 16.5677 29.0885 16.5677 29.2969 16.6719C29.5052 16.7656 29.6823 16.9635 29.8281 17.2656L33.4375 25.0312C34.625 27.5938 35.0469 29.849 34.7031 31.7969C34.3594 33.7448 33.3646 35.5417 31.7188 37.1875ZM18.5469 10.5938C18.349 10.7812 18.1875 10.9948 18.0625 11.2344C17.9479 11.4635 17.8698 11.6979 17.8281 11.9375L20.1875 14.3125C20 14.0625 19.901 13.8021 19.8906 13.5312C19.8906 13.2604 19.9896 13.026 20.1875 12.8281C20.3854 12.6302 20.6146 12.5365 20.875 12.5469C21.1458 12.5573 21.3854 12.6719 21.5938 12.8906L26.4688 17.7656L28.2969 15.5156L23.375 10.5938C22.6458 9.86458 21.8438 9.50521 20.9688 9.51562C20.0938 9.52604 19.2865 9.88542 18.5469 10.5938ZM38.4531 38.2344C40.5677 36.1302 41.7969 33.7865 42.1406 31.2031C42.4948 28.6198 41.9583 25.8281 40.5312 22.8281L36.9531 15.2656C36.599 14.5156 36.125 13.9271 35.5312 13.5C34.9479 13.0625 34.2865 12.849 33.5469 12.8594C33.2969 12.8594 33 12.9062 32.6562 13C32.3229 13.0938 31.9948 13.2552 31.6719 13.4844C31.3594 13.7135 31.099 14.0208 30.8906 14.4062C30.6823 14.7917 30.5781 15.276 30.5781 15.8594C30.5781 16.0365 30.5833 16.1927 30.5938 16.3281L32.7812 17.1875C32.6979 16.9896 32.6562 16.7917 32.6562 16.5938C32.6562 16.375 32.7396 16.1823 32.9062 16.0156C33.0729 15.849 33.2969 15.7656 33.5781 15.7656C33.9635 15.7656 34.2604 15.9792 34.4688 16.4062L38 24.0312C39.1875 26.5938 39.6094 28.849 39.2656 30.7969C38.9323 32.7448 37.9427 34.5365 36.2969 36.1719C34.849 37.6198 33.3073 38.5104 31.6719 38.8438L28.4375 41.6719C30.1771 42.026 31.9062 41.9115 33.625 41.3281C35.3542 40.7552 36.9635 39.724 38.4531 38.2344Z" fill="#379544"/>
</svg>
