<svg width="40" height="48" viewBox="0 0 40 48" fill="none" xmlns="http://www.w3.org/2000/svg">
<path d="M19.9844 42.9062C21.1823 42.9062 22.2656 42.4531 23.2344 41.5469C24.2135 40.6406 25.0469 39.3438 25.7344 37.6562C26.4219 35.9688 26.9479 33.9479 27.3125 31.5938C27.6875 29.2396 27.875 26.6146 27.875 23.7188C27.875 20.8333 27.6875 18.2188 27.3125 15.875C26.9479 13.5208 26.4219 11.5052 25.7344 9.82812C25.0469 8.14062 24.2135 6.84375 23.2344 5.9375C22.2656 5.02083 21.1823 4.5625 19.9844 4.5625C18.7969 4.5625 17.7135 5.02083 16.7344 5.9375C15.7656 6.84375 14.9375 8.14062 14.25 9.82812C13.5625 11.5052 13.0312 13.5208 12.6562 15.875C12.2812 18.2188 12.0937 20.8333 12.0937 23.7188C12.0937 26.6146 12.2812 29.2396 12.6562 31.5938C13.0312 33.9479 13.5625 35.9635 14.25 37.6406C14.9375 39.3281 15.7656 40.625 16.7344 41.5312C17.7135 42.4479 18.7969 42.9062 19.9844 42.9062ZM19.9844 40C19.0677 40 18.2604 39.3229 17.5625 37.9688C16.875 36.6146 16.3385 34.7188 15.9531 32.2812C15.5677 29.8333 15.375 26.9792 15.375 23.7188C15.375 20.4583 15.5677 17.6146 15.9531 15.1875C16.3385 12.75 16.875 10.8542 17.5625 9.5C18.2604 8.14583 19.0677 7.46875 19.9844 7.46875C20.9115 7.46875 21.7187 8.14583 22.4062 9.5C23.1042 10.8542 23.6458 12.75 24.0312 15.1875C24.4271 17.6146 24.625 20.4583 24.625 23.7188C24.625 26.9792 24.4271 29.8333 24.0312 32.2812C23.6458 34.7188 23.1042 36.6146 22.4062 37.9688C21.7187 39.3229 20.9115 40 19.9844 40ZM3.39062 33.4375C3.98437 34.4688 4.91666 35.1771 6.18749 35.5625C7.45833 35.9479 8.99479 36.0208 10.7969 35.7812C12.599 35.5417 14.6146 34.9948 16.8437 34.1406C19.0729 33.2865 21.4427 32.1302 23.9531 30.6719C26.4531 29.2344 28.6302 27.7708 30.4844 26.2812C32.3385 24.7812 33.8177 23.3125 34.9219 21.875C36.0365 20.4375 36.7448 19.0729 37.0469 17.7812C37.349 16.4896 37.2031 15.3177 36.6094 14.2656C36.0052 13.2344 35.0677 12.526 33.7969 12.1406C32.526 11.7552 30.9896 11.6823 29.1875 11.9219C27.3854 12.1615 25.375 12.7083 23.1562 13.5625C20.9375 14.4167 18.5729 15.5677 16.0625 17.0156C13.5521 18.4635 11.3698 19.9375 9.51562 21.4375C7.67187 22.9375 6.1927 24.4115 5.07812 25.8594C3.96354 27.2969 3.2552 28.6615 2.95312 29.9531C2.65104 31.2344 2.79687 32.3958 3.39062 33.4375ZM5.92187 31.9844C5.46354 31.1927 5.64583 30.1615 6.46874 28.8906C7.29166 27.6198 8.66145 26.2083 10.5781 24.6562C12.4948 23.0938 14.8698 21.4948 17.7031 19.8594C20.5156 18.224 23.0729 16.9688 25.375 16.0938C27.6771 15.2083 29.5833 14.7292 31.0937 14.6562C32.6146 14.5833 33.6042 14.9427 34.0625 15.7344C34.5208 16.5156 34.3385 17.5469 33.5156 18.8281C32.7031 20.1094 31.3385 21.526 29.4219 23.0781C27.5052 24.6302 25.1406 26.2135 22.3281 27.8281C19.4948 29.4635 16.9219 30.724 14.6094 31.6094C12.2969 32.4948 10.3854 32.9792 8.87499 33.0625C7.36458 33.1354 6.3802 32.776 5.92187 31.9844ZM36.6094 33.4375C37.1927 32.3958 37.3333 31.2344 37.0312 29.9531C36.7292 28.6615 36.0208 27.2969 34.9062 25.8594C33.8021 24.4115 32.3229 22.9375 30.4687 21.4375C28.6146 19.9375 26.4323 18.4635 23.9219 17.0156C21.4115 15.5677 19.0469 14.4167 16.8281 13.5625C14.6094 12.7083 12.5937 12.1615 10.7812 11.9219C8.97916 11.6823 7.4427 11.7552 6.17187 12.1406C4.91145 12.526 3.98437 13.2344 3.39062 14.2656C2.78645 15.3177 2.63541 16.4896 2.93749 17.7812C3.23958 19.0729 3.94791 20.4375 5.06249 21.875C6.17708 23.3125 7.65624 24.7812 9.49999 26.2812C11.3542 27.7708 13.5312 29.2344 16.0312 30.6719C18.5521 32.1302 20.9219 33.2865 23.1406 34.1406C25.3698 34.9948 27.3854 35.5417 29.1875 35.7812C31 36.0208 32.5365 35.9479 33.7969 35.5625C35.0677 35.1771 36.0052 34.4688 36.6094 33.4375ZM34.0625 31.9844C33.6042 32.776 32.6198 33.1354 31.1094 33.0625C29.599 32.9792 27.6875 32.4948 25.375 31.6094C23.0625 30.724 20.4948 29.4635 17.6719 27.8281C14.849 26.2135 12.4792 24.6302 10.5625 23.0781C8.64583 21.526 7.27604 20.1094 6.45312 18.8281C5.64062 17.5469 5.46354 16.5156 5.92187 15.7344C6.3802 14.9427 7.36979 14.5833 8.89062 14.6562C10.4115 14.7292 12.3229 15.2083 14.625 16.0938C16.9271 16.9688 19.4844 18.224 22.2969 19.8594C25.1198 21.4948 27.4896 23.0938 29.4062 24.6562C31.3333 26.2083 32.7031 27.6198 33.5156 28.8906C34.3385 30.1615 34.5208 31.1927 34.0625 31.9844ZM20 26.8125C20.8542 26.8125 21.5781 26.5156 22.1719 25.9219C22.776 25.3177 23.0781 24.5885 23.0781 23.7344C23.0781 22.8802 22.776 22.1562 22.1719 21.5625C21.5781 20.9583 20.8542 20.6562 20 20.6562C19.1458 20.6562 18.4167 20.9583 17.8125 21.5625C17.2083 22.1562 16.9062 22.8802 16.9062 23.7344C16.9062 24.5885 17.2083 25.3177 17.8125 25.9219C18.4167 26.5156 19.1458 26.8125 20 26.8125Z" fill="#379544"/>
</svg>
