<svg width="22" height="24" viewBox="0 0 22 24" fill="none" xmlns="http://www.w3.org/2000/svg">
<path d="M9.46875 20.4297C10.0104 20.4297 10.5391 20.375 11.0547 20.2656C11.5755 20.1615 12.0755 20.0078 12.5547 19.8047C12.1953 19.4089 11.9115 18.9505 11.7031 18.4297C11.3542 18.5599 10.9922 18.6589 10.6172 18.7266C10.2474 18.7995 9.86458 18.8359 9.46875 18.8359C8.57292 18.8359 7.73177 18.6693 6.94531 18.3359C6.16406 18.0026 5.47656 17.5391 4.88281 16.9453C4.29427 16.3516 3.83333 15.6641 3.5 14.8828C3.16667 14.1016 3 13.2604 3 12.3594C3 11.4635 3.16667 10.625 3.5 9.84375C3.83333 9.05729 4.29427 8.36719 4.88281 7.77344C5.47135 7.17969 6.15625 6.71615 6.9375 6.38281C7.72396 6.04948 8.5651 5.88281 9.46094 5.88281C10.2734 5.88281 11.0391 6.02083 11.7578 6.29688C12.4818 6.57292 13.1302 6.96094 13.7031 7.46094C14.276 7.95573 14.7474 8.53646 15.1172 9.20312C15.4922 9.86979 15.7396 10.5938 15.8594 11.375C16.099 11.3333 16.3672 11.3203 16.6641 11.3359C16.9609 11.3464 17.2344 11.3828 17.4844 11.4453C17.3698 10.4453 17.0807 9.51302 16.6172 8.64844C16.1589 7.78385 15.5651 7.02604 14.8359 6.375C14.112 5.71875 13.2917 5.20833 12.375 4.84375C11.4583 4.47396 10.487 4.28906 9.46094 4.28906C8.35677 4.28906 7.31771 4.5 6.34375 4.92188C5.375 5.34375 4.51823 5.92708 3.77344 6.67188C3.02865 7.41146 2.44531 8.26823 2.02344 9.24219C1.60677 10.2161 1.39844 11.2552 1.39844 12.3594C1.39844 13.4635 1.60938 14.5026 2.03125 15.4766C2.45312 16.4505 3.03385 17.3099 3.77344 18.0547C4.51823 18.7995 5.3776 19.3802 6.35156 19.7969C7.32552 20.2188 8.36458 20.4297 9.46875 20.4297ZM5.51562 13.3359H9.46094C9.63802 13.3359 9.78646 13.276 9.90625 13.1562C10.026 13.0365 10.0859 12.888 10.0859 12.7109V7.59375C10.0859 7.42188 10.026 7.27604 9.90625 7.15625C9.78646 7.03646 9.63802 6.97656 9.46094 6.97656C9.28906 6.97656 9.14323 7.03646 9.02344 7.15625C8.90365 7.27604 8.84375 7.42188 8.84375 7.59375V12.0938H5.51562C5.34375 12.0938 5.19792 12.1536 5.07812 12.2734C4.95833 12.388 4.89844 12.5339 4.89844 12.7109C4.89844 12.888 4.95833 13.0365 5.07812 13.1562C5.19792 13.276 5.34375 13.3359 5.51562 13.3359ZM16.3984 20.4766C16.9401 20.4766 17.4531 20.3698 17.9375 20.1562C18.4271 19.9479 18.8568 19.6589 19.2266 19.2891C19.6016 18.9193 19.8932 18.4896 20.1016 18C20.3151 17.5156 20.4219 17 20.4219 16.4531C20.4219 15.901 20.3151 15.3828 20.1016 14.8984C19.8932 14.4089 19.6042 13.9792 19.2344 13.6094C18.8646 13.2396 18.4375 12.9505 17.9531 12.7422C17.4688 12.5339 16.9505 12.4297 16.3984 12.4297C15.8464 12.4297 15.3281 12.5339 14.8438 12.7422C14.3594 12.9505 13.9323 13.2422 13.5625 13.6172C13.1927 13.987 12.901 14.4141 12.6875 14.8984C12.4792 15.3828 12.375 15.901 12.375 16.4531C12.375 17.0052 12.4792 17.5234 12.6875 18.0078C12.901 18.4922 13.1927 18.9193 13.5625 19.2891C13.9323 19.6641 14.3594 19.9557 14.8438 20.1641C15.3281 20.3724 15.8464 20.4766 16.3984 20.4766ZM16.3984 19.0703C16.2005 19.0703 16.0312 19.0026 15.8906 18.8672C15.75 18.7318 15.6797 18.5651 15.6797 18.3672C15.6797 18.1641 15.75 17.9948 15.8906 17.8594C16.0312 17.724 16.2005 17.6562 16.3984 17.6562C16.6068 17.6562 16.7786 17.7266 16.9141 17.8672C17.0547 18.0026 17.125 18.1693 17.125 18.3672C17.125 18.5651 17.0547 18.7318 16.9141 18.8672C16.7734 19.0026 16.6016 19.0703 16.3984 19.0703ZM16.4062 17.1328C16.25 17.1328 16.1224 17.0859 16.0234 16.9922C15.9245 16.8932 15.8724 16.7682 15.8672 16.6172L15.7969 14.4062C15.7917 14.2292 15.8438 14.0859 15.9531 13.9766C16.0677 13.8672 16.2188 13.8125 16.4062 13.8125C16.5885 13.8125 16.7344 13.8672 16.8438 13.9766C16.9583 14.0859 17.013 14.2292 17.0078 14.4062L16.9453 16.6172C16.9349 16.7682 16.8802 16.8932 16.7812 16.9922C16.6823 17.0859 16.5573 17.1328 16.4062 17.1328Z" fill="#EF4444"/>
</svg>
