<svg width="41" height="48" viewBox="0 0 41 48" fill="none" xmlns="http://www.w3.org/2000/svg">
<path d="M3.98438 23.7188C3.98438 24.3333 4.15625 24.8438 4.5 25.25C4.84375 25.6458 5.32812 25.9115 5.95312 26.0469C6.96354 26.2344 7.68229 26.6094 8.10938 27.1719C8.53646 27.7344 8.75 28.6198 8.75 29.8281V33.5C8.75 35.8542 9.3125 37.5677 10.4375 38.6406C11.5625 39.724 13.2865 40.2656 15.6094 40.2656C15.974 40.2656 16.3177 40.224 16.6406 40.1406C17.0885 40.0156 17.4219 39.8073 17.6406 39.5156C17.8594 39.2344 17.9688 38.9062 17.9688 38.5312C17.9688 37.7292 17.5885 37.2344 16.8281 37.0469C16.7344 37.0156 16.6406 36.9896 16.5469 36.9688C16.4531 36.9583 16.3542 36.9479 16.25 36.9375C15.0417 36.8333 14.1927 36.4844 13.7031 35.8906C13.2135 35.3073 12.9688 34.349 12.9688 33.0156V28.4688C12.9688 27.1042 12.5833 26.0312 11.8125 25.25C11.0521 24.4583 10.0052 23.9896 8.67188 23.8438C8.59896 23.8438 8.5625 23.8125 8.5625 23.75C8.5625 23.6771 8.59896 23.6354 8.67188 23.625C10.0052 23.4792 11.0521 23.0156 11.8125 22.2344C12.5833 21.4531 12.9688 20.3802 12.9688 19.0156V14.4688C12.9688 13.1354 13.2135 12.1771 13.7031 11.5938C14.1927 11 15.0417 10.6562 16.25 10.5625C16.375 10.5417 16.4948 10.5208 16.6094 10.5C16.7344 10.4792 16.8438 10.4531 16.9375 10.4219C17.625 10.2135 17.9688 9.72396 17.9688 8.95312C17.9688 8.56771 17.8646 8.23958 17.6562 7.96875C17.4479 7.69792 17.125 7.49479 16.6875 7.35938C16.3646 7.25521 15.9688 7.20312 15.5 7.20312C13.2188 7.20312 11.5208 7.75 10.4062 8.84375C9.30208 9.9375 8.75 11.651 8.75 13.9844V17.6562C8.75 18.8542 8.53646 19.7344 8.10938 20.2969C7.68229 20.8594 6.96354 21.2344 5.95312 21.4219C5.32812 21.5573 4.84375 21.8281 4.5 22.2344C4.15625 22.6302 3.98438 23.125 3.98438 23.7188ZM36.7031 23.7188C36.7031 23.125 36.5312 22.6302 36.1875 22.2344C35.8542 21.8281 35.3698 21.5573 34.7344 21.4219C33.7344 21.224 33.0156 20.849 32.5781 20.2969C32.1406 19.7344 31.9219 18.8542 31.9219 17.6562V13.9844C31.9219 11.651 31.3698 9.9375 30.2656 8.84375C29.1615 7.75 27.4688 7.20312 25.1875 7.20312C24.7292 7.20312 24.3385 7.25521 24.0156 7.35938C23.5677 7.49479 23.2396 7.69792 23.0312 7.96875C22.8229 8.23958 22.7188 8.56771 22.7188 8.95312C22.7188 9.70312 23.0677 10.1927 23.7656 10.4219C23.849 10.4635 23.9479 10.4948 24.0625 10.5156C24.1771 10.526 24.3021 10.5417 24.4375 10.5625C25.6458 10.6458 26.4948 10.9844 26.9844 11.5781C27.474 12.1719 27.7188 13.1354 27.7188 14.4688V19.0156C27.7188 20.3802 28.099 21.4792 28.8594 22.3125C29.6302 23.1458 30.6823 23.5833 32.0156 23.625C32.0885 23.6354 32.125 23.6771 32.125 23.75C32.125 23.8125 32.0885 23.8438 32.0156 23.8438C30.6823 23.9062 29.6302 24.349 28.8594 25.1719C28.099 25.9948 27.7188 27.0938 27.7188 28.4688V33.0156C27.7188 34.349 27.474 35.3073 26.9844 35.8906C26.4948 36.4844 25.6458 36.8333 24.4375 36.9375C24.3333 36.9479 24.2344 36.9583 24.1406 36.9688C24.0469 36.9896 23.9531 37.0156 23.8594 37.0469C23.4844 37.1406 23.1979 37.3073 23 37.5469C22.8125 37.7865 22.7188 38.1146 22.7188 38.5312C22.7188 38.9167 22.8281 39.2552 23.0469 39.5469C23.276 39.8385 23.6146 40.0365 24.0625 40.1406C24.375 40.224 24.7135 40.2656 25.0781 40.2656C27.4115 40.2656 29.1354 39.724 30.25 38.6406C31.3646 37.5677 31.9219 35.8542 31.9219 33.5V29.8281C31.9219 28.6198 32.1354 27.7344 32.5625 27.1719C33 26.6094 33.724 26.2344 34.7344 26.0469C35.3698 25.9115 35.8542 25.6458 36.1875 25.25C36.5312 24.8438 36.7031 24.3333 36.7031 23.7188Z" fill="#379544"/>
</svg>
