<svg width="46" height="48" viewBox="0 0 46 48" fill="none" xmlns="http://www.w3.org/2000/svg">
<path d="M26.8438 39.2188C28.9688 39.2188 30.9635 38.8125 32.8281 38C34.7031 37.1979 36.3542 36.0833 37.7812 34.6562C39.2083 33.2188 40.3281 31.5677 41.1406 29.7031C41.9531 27.8281 42.3594 25.8333 42.3594 23.7188C42.3594 21.6042 41.9479 19.6146 41.125 17.75C40.3125 15.875 39.1927 14.224 37.7656 12.7969C36.3385 11.3594 34.6875 10.2396 32.8125 9.4375C30.9375 8.625 28.9427 8.21875 26.8281 8.21875C24.7135 8.21875 22.7188 8.625 20.8438 9.4375C18.9792 10.2396 17.3333 11.3594 15.9062 12.7969C14.4896 14.224 13.375 15.8698 12.5625 17.7344C11.75 19.599 11.3438 21.5938 11.3438 23.7188C11.3438 25.8333 11.75 27.8281 12.5625 29.7031C13.375 31.5677 14.4948 33.2188 15.9219 34.6562C17.349 36.0833 18.9948 37.1979 20.8594 38C22.7344 38.8125 24.7292 39.2188 26.8438 39.2188ZM26.8438 35.7344C25.1771 35.7344 23.6198 35.4271 22.1719 34.8125C20.724 34.1875 19.4479 33.3281 18.3438 32.2344C17.25 31.1406 16.3958 29.8646 15.7812 28.4062C15.1667 26.9479 14.8594 25.3854 14.8594 23.7188C14.8594 22.0521 15.1667 20.4896 15.7812 19.0312C16.3958 17.5729 17.25 16.2969 18.3438 15.2031C19.4375 14.099 20.7083 13.2396 22.1562 12.625C23.6042 12 25.1615 11.6875 26.8281 11.6875C28.5052 11.6875 30.0677 12 31.5156 12.625C32.974 13.25 34.25 14.1094 35.3438 15.2031C36.4479 16.2969 37.3073 17.5729 37.9219 19.0312C38.5469 20.4896 38.8646 22.0521 38.875 23.7188C38.875 25.3854 38.5677 26.9479 37.9531 28.4062C37.3385 29.8542 36.4792 31.1302 35.375 32.2344C34.2812 33.3281 33.0052 34.1875 31.5469 34.8125C30.0885 35.4271 28.5208 35.7344 26.8438 35.7344ZM16.5938 33.5469L15.1719 31.4844C14.6823 31.8073 14.1562 32.0573 13.5938 32.2344C13.0312 32.401 12.4271 32.4844 11.7812 32.4844C10.9583 32.4844 10.2396 32.349 9.625 32.0781C9.01042 31.8073 8.53125 31.4323 8.1875 30.9531C7.85417 30.4635 7.6875 29.8958 7.6875 29.25C7.6875 28.3021 8.0625 27.5417 8.8125 26.9688C9.57292 26.3854 10.6615 26.0469 12.0781 25.9531L13.5156 25.8594L12.8125 22.875L11.6875 22.9844C9.25 23.224 7.35417 23.875 6 24.9375C4.65625 25.9896 3.98438 27.4375 3.98438 29.2812C3.98438 30.5521 4.28125 31.6667 4.875 32.625C5.47917 33.5833 6.31771 34.3333 7.39062 34.875C8.46354 35.4062 9.70312 35.6719 11.1094 35.6719C12.1302 35.6719 13.1146 35.4844 14.0625 35.1094C15.0208 34.7344 15.8646 34.2135 16.5938 33.5469ZM15 17.3438L16.9531 14.5C15.8698 14.0312 14.6042 13.7969 13.1562 13.7969C11.9688 13.7969 10.8594 13.9688 9.82812 14.3125C8.79688 14.6458 7.89583 15.1198 7.125 15.7344C6.35417 16.349 5.77083 17.0625 5.375 17.875C5.25 18.125 5.14583 18.3854 5.0625 18.6562C4.98958 18.9167 4.95312 19.1615 4.95312 19.3906C4.95312 19.8802 5.10938 20.2812 5.42188 20.5938C5.73438 20.9062 6.13021 21.0625 6.60938 21.0625C7.30729 21.0625 7.81771 20.7552 8.14062 20.1406C8.65104 19.0573 9.30729 18.2812 10.1094 17.8125C10.9219 17.3333 11.9115 17.0938 13.0781 17.0938C13.7448 17.0938 14.3854 17.1771 15 17.3438ZM27.3125 37.7656L31.4531 37.7344V19.4062C31.4531 17.8021 31.1198 16.3906 30.4531 15.1719C29.7969 13.9427 28.8542 12.9479 27.625 12.1875C26.3958 11.4271 24.9219 10.9427 23.2031 10.7344C22.9427 10.7031 22.6771 10.6771 22.4062 10.6562C22.1354 10.6354 21.8594 10.6198 21.5781 10.6094L17.2188 15.0781C17.8542 14.901 18.401 14.7656 18.8594 14.6719C19.3177 14.5781 19.7292 14.5156 20.0938 14.4844C20.4583 14.4427 20.8385 14.4219 21.2344 14.4219C23.0885 14.4219 24.5312 14.8958 25.5625 15.8438C26.5938 16.7812 27.1094 18.099 27.1094 19.7969V21.8125L19.4531 22.2656C17.0573 22.4115 15.0833 22.9375 13.5312 23.8438L14.3594 28.7188C14.7865 28.0521 15.2708 27.5104 15.8125 27.0938C16.3646 26.6771 16.9792 26.3646 17.6562 26.1562C18.3438 25.9375 19.1094 25.7969 19.9531 25.7344L27.1094 25.2812V27.5625C27.1094 28.5312 26.9115 29.4323 26.5156 30.2656C26.1302 31.0885 25.5833 31.8073 24.875 32.4219C24.1771 33.0365 23.3594 33.5052 22.4219 33.8281C21.4948 34.151 20.4948 34.2917 19.4219 34.25L22.9219 37.3281C23.9844 36.9323 24.9219 36.4062 25.7344 35.75C26.5469 35.1042 27.151 34.3958 27.5469 33.625H27.3125V37.7656Z" fill="#379544"/>
</svg>
