<svg width="31" height="32" viewBox="0 0 31 32" fill="none" xmlns="http://www.w3.org/2000/svg">
<path d="M2.98828 7.49219C2.98828 9.03906 3.25391 10.4219 3.78516 11.6406C4.32422 12.8516 5.12109 13.8906 6.17578 14.7578C7.23828 15.625 8.55859 16.3047 10.1367 16.7969C10.4414 17.1953 10.7617 17.5625 11.0977 17.8984C11.4336 18.2266 11.7734 18.5195 12.1172 18.7773V23.0312H10.8984C10.0391 23.0312 9.36719 23.2773 8.88281 23.7695C8.39844 24.2617 8.15625 24.9297 8.15625 25.7734V28.5391C8.15625 28.9297 8.28906 29.2539 8.55469 29.5117C8.82812 29.7695 9.15234 29.8984 9.52734 29.8984H20.8828C21.2578 29.8984 21.5781 29.7695 21.8438 29.5117C22.1094 29.2539 22.2422 28.9297 22.2422 28.5391V25.7734C22.2422 24.9297 22 24.2617 21.5156 23.7695C21.0391 23.2773 20.3672 23.0312 19.5 23.0312H18.2812V18.7891C18.625 18.5312 18.9648 18.2344 19.3008 17.8984C19.6445 17.5625 19.9688 17.1953 20.2734 16.7969C21.8438 16.3047 23.1562 15.625 24.2109 14.7578C25.2734 13.8906 26.0703 12.8516 26.6016 11.6406C27.1406 10.4219 27.4102 9.03906 27.4102 7.49219C27.4102 6.75781 27.1797 6.17578 26.7188 5.74609C26.2656 5.30859 25.6562 5.08984 24.8906 5.08984H22.7461C22.582 4.47266 22.2539 3.99219 21.7617 3.64844C21.2773 3.30469 20.6562 3.13281 19.8984 3.13281H10.5117C9.75391 3.13281 9.12891 3.30469 8.63672 3.64844C8.15234 3.99219 7.82812 4.47266 7.66406 5.08984H5.51953C4.74609 5.08984 4.12891 5.30859 3.66797 5.74609C3.21484 6.17578 2.98828 6.75781 2.98828 7.49219ZM5.44922 7.94922C5.44922 7.86328 5.47656 7.79297 5.53125 7.73828C5.58594 7.68359 5.66016 7.65625 5.75391 7.65625H7.5V9.58984C7.5 10.2539 7.56641 10.8984 7.69922 11.5234C7.83984 12.1406 8.03125 12.7344 8.27344 13.3047C7.35156 12.7422 6.64844 12.0078 6.16406 11.1016C5.6875 10.1953 5.44922 9.14453 5.44922 7.94922ZM10.1953 9.91797V6.42578C10.1953 6.24609 10.25 6.10547 10.3594 6.00391C10.4688 5.89453 10.6094 5.83984 10.7812 5.83984H19.6172C19.7969 5.83984 19.9414 5.89453 20.0508 6.00391C20.1602 6.10547 20.2148 6.24609 20.2148 6.42578V9.91797C20.2148 10.7305 20.0859 11.5078 19.8281 12.25C19.5703 12.9922 19.2383 13.6758 18.832 14.3008C18.4336 14.918 18.0039 15.457 17.543 15.918C17.0898 16.3711 16.6523 16.7266 16.2305 16.9844C15.8164 17.2344 15.4727 17.3594 15.1992 17.3594C14.9336 17.3594 14.5898 17.2344 14.168 16.9844C13.7539 16.7266 13.3164 16.3711 12.8555 15.918C12.4023 15.457 11.9727 14.918 11.5664 14.3008C11.1602 13.6758 10.8281 12.9922 10.5703 12.25C10.3203 11.5078 10.1953 10.7305 10.1953 9.91797ZM10.8516 27.1914V26.2422C10.8516 26.0859 10.8984 25.9609 10.9922 25.8672C11.0938 25.7734 11.2227 25.7266 11.3789 25.7266H19.0195C19.1836 25.7266 19.3125 25.7734 19.4062 25.8672C19.5 25.9609 19.5469 26.0859 19.5469 26.2422V27.1914H10.8516ZM14.543 23.0312V19.9727C14.7852 20.0195 15.0039 20.043 15.1992 20.043C15.3945 20.043 15.6133 20.0195 15.8555 19.9727V23.0312H14.543ZM22.1367 13.3047C22.3711 12.7344 22.5586 12.1406 22.6992 11.5234C22.8398 10.8984 22.9102 10.2539 22.9102 9.58984V7.65625H24.6562C24.75 7.65625 24.8242 7.68359 24.8789 7.73828C24.9336 7.79297 24.9609 7.86328 24.9609 7.94922C24.9609 9.14453 24.7188 10.1953 24.2344 11.1016C23.7578 12.0078 23.0586 12.7422 22.1367 13.3047Z" fill="#D96E57"/>
</svg>
