<svg width="53" height="48" viewBox="0 0 53 48" fill="none" xmlns="http://www.w3.org/2000/svg">
<path d="M9.34375 33.7969H12.8281V14.8594C12.8281 14.3698 12.9479 14.0104 13.1875 13.7812C13.4271 13.5521 13.7812 13.4375 14.25 13.4375H45.2188C45.1771 12.3125 44.8333 11.4531 44.1875 10.8594C43.5417 10.2552 42.6458 9.95312 41.5 9.95312H13.4062C12.1458 9.95312 11.151 10.3021 10.4219 11C9.70312 11.6875 9.34375 12.6823 9.34375 13.9844V33.7969ZM6.125 36.6094H34.1406C33.6198 35.8281 33.3542 34.9323 33.3438 33.9219C33.3438 33.651 33.3385 33.3854 33.3281 33.125C33.3281 32.8542 33.3281 32.5833 33.3281 32.3125H6.125C5.54167 32.3125 5.03646 32.526 4.60938 32.9531C4.19271 33.3698 3.98438 33.875 3.98438 34.4688C3.98438 35.0521 4.19271 35.5521 4.60938 35.9688C5.03646 36.3958 5.54167 36.6094 6.125 36.6094ZM38.3594 36.7656H45.875C46.8229 36.7656 47.5677 36.4948 48.1094 35.9531C48.651 35.4219 48.9219 34.6927 48.9219 33.7656V18.2188C48.9219 17.2917 48.651 16.5625 48.1094 16.0312C47.5677 15.4896 46.8229 15.2188 45.875 15.2188H38.3594C37.3906 15.2188 36.6302 15.4896 36.0781 16.0312C35.526 16.5625 35.25 17.2917 35.25 18.2188V33.7656C35.25 34.6927 35.526 35.4219 36.0781 35.9531C36.6302 36.4948 37.3906 36.7656 38.3594 36.7656ZM38.625 34.2031C38.3229 34.2031 38.099 34.125 37.9531 33.9688C37.8073 33.8125 37.7344 33.5781 37.7344 33.2656V18.7031C37.7344 18.401 37.8073 18.1719 37.9531 18.0156C38.099 17.8594 38.3229 17.7812 38.625 17.7812H39.9688C40.0417 17.7812 40.0781 17.8125 40.0781 17.875V18.0312C40.0781 18.3125 40.1615 18.5365 40.3281 18.7031C40.4948 18.8698 40.7135 18.9531 40.9844 18.9531H43.2031C43.4635 18.9531 43.6771 18.8698 43.8438 18.7031C44.0208 18.5365 44.1094 18.3125 44.1094 18.0312V17.875C44.1094 17.8125 44.1406 17.7812 44.2031 17.7812H45.5469C45.8385 17.7812 46.0625 17.8646 46.2188 18.0312C46.375 18.1875 46.4531 18.4167 46.4531 18.7188V33.2656C46.4531 33.5677 46.375 33.8021 46.2188 33.9688C46.0625 34.125 45.8385 34.2031 45.5469 34.2031H38.625ZM39.9688 33.3438H44.2031C44.5781 33.3438 44.7656 33.1562 44.7656 32.7812C44.7656 32.6146 44.7135 32.4792 44.6094 32.375C44.5052 32.2708 44.3698 32.2188 44.2031 32.2188H39.9688C39.8021 32.2188 39.6667 32.2708 39.5625 32.375C39.4688 32.4792 39.4219 32.6146 39.4219 32.7812C39.4219 33.1562 39.6042 33.3438 39.9688 33.3438Z" fill="#379544"/>
</svg>
