<svg width="41" height="48" viewBox="0 0 41 48" fill="none" xmlns="http://www.w3.org/2000/svg">
<path d="M3.98438 24.3125C3.98438 25.8958 4.13021 27.5156 4.42188 29.1719C4.72396 30.8281 5.15104 32.4479 5.70312 34.0312C6.26562 35.6042 6.92708 37.0729 7.6875 38.4375C7.9375 38.8646 8.28125 39.1354 8.71875 39.25C9.16667 39.3646 9.61458 39.2969 10.0625 39.0469C10.5 38.8177 10.7708 38.4792 10.875 38.0312C10.9896 37.5833 10.9167 37.1302 10.6562 36.6719C9.63542 34.7969 8.84375 32.7865 8.28125 30.6406C7.72917 28.4948 7.45312 26.3854 7.45312 24.3125C7.45312 22.1979 7.75521 20.2812 8.35938 18.5625C8.97396 16.8438 9.84896 15.3646 10.9844 14.125C12.1198 12.8854 13.4792 11.9323 15.0625 11.2656C16.6562 10.5885 18.4167 10.25 20.3438 10.25C22.2812 10.25 24.0417 10.5885 25.625 11.2656C27.2083 11.9323 28.5677 12.8854 29.7031 14.125C30.8385 15.3646 31.7135 16.8438 32.3281 18.5625C32.9427 20.2812 33.25 22.1979 33.25 24.3125C33.25 26.3854 32.9688 28.4948 32.4062 30.6406C31.8438 32.7865 31.0521 34.7969 30.0312 36.6719C29.7708 37.1302 29.6927 37.5833 29.7969 38.0312C29.9115 38.4792 30.1875 38.8177 30.625 39.0469C31.0729 39.2969 31.5156 39.3646 31.9531 39.25C32.401 39.1354 32.75 38.8646 33 38.4375C33.7708 37.0729 34.4323 35.6042 34.9844 34.0312C35.5469 32.4479 35.974 30.8281 36.2656 29.1719C36.5677 27.5156 36.7188 25.8958 36.7188 24.3125C36.7188 21.6771 36.3281 19.2865 35.5469 17.1406C34.776 14.9948 33.6667 13.151 32.2188 11.6094C30.7812 10.0677 29.0573 8.88021 27.0469 8.04688C25.0365 7.21354 22.8021 6.79688 20.3438 6.79688C17.8854 6.79688 15.651 7.21354 13.6406 8.04688C11.6302 8.88021 9.90625 10.0677 8.46875 11.6094C7.03125 13.151 5.92188 14.9948 5.14062 17.1406C4.36979 19.2865 3.98438 21.6771 3.98438 24.3125ZM9.53125 38C9.83333 38.9479 10.3646 39.6198 11.125 40.0156C11.8854 40.4115 12.7448 40.4583 13.7031 40.1562C14.6615 39.8646 15.3385 39.3333 15.7344 38.5625C16.1302 37.7917 16.1771 36.9323 15.875 35.9844L13.625 28.7188C13.3229 27.7708 12.7917 27.099 12.0312 26.7031C11.2708 26.3073 10.4115 26.2552 9.45312 26.5469C8.49479 26.8385 7.81771 27.3698 7.42188 28.1406C7.02604 28.9115 6.97917 29.776 7.28125 30.7344L9.53125 38ZM31.1562 38L33.4062 30.7344C33.7188 29.776 33.6719 28.9115 33.2656 28.1406C32.8698 27.3698 32.1927 26.8385 31.2344 26.5469C30.276 26.2552 29.4167 26.3073 28.6562 26.7031C27.8958 27.099 27.3646 27.7708 27.0625 28.7188L24.8125 35.9844C24.5104 36.9323 24.5573 37.7917 24.9531 38.5625C25.349 39.3333 26.026 39.8646 26.9844 40.1562C27.9427 40.4583 28.8021 40.4115 29.5625 40.0156C30.3333 39.6198 30.8646 38.9479 31.1562 38Z" fill="#379544"/>
</svg>
