<svg width="49" height="48" viewBox="0 0 49 48" fill="none" xmlns="http://www.w3.org/2000/svg">
<path d="M3.98438 36.6719C3.98438 38.026 4.32292 39.0417 5 39.7188C5.67708 40.4062 6.69271 40.75 8.04688 40.75H30.2031C31.5469 40.75 32.5573 40.4062 33.2344 39.7188C33.9115 39.0417 34.25 38.026 34.25 36.6719V10.0156C34.25 8.66146 33.9115 7.64062 33.2344 6.95312C32.5573 6.26562 31.5469 5.92188 30.2031 5.92188H26.7969C25.4427 5.92188 24.4271 6.26562 23.75 6.95312C23.0729 7.64062 22.7344 8.66146 22.7344 10.0156V16.1562C22.4531 16.0938 22.1562 16.0625 21.8438 16.0625H15.4531C15.1302 16.0625 14.8229 16.0938 14.5312 16.1562V14.4688C14.5312 13.125 14.1927 12.1094 13.5156 11.4219C12.849 10.7344 11.8385 10.3906 10.4844 10.3906H8.04688C6.69271 10.3906 5.67708 10.7344 5 11.4219C4.32292 12.1094 3.98438 13.125 3.98438 14.4688V36.6719ZM7.34375 36.1406V15C7.34375 14.5938 7.44792 14.2865 7.65625 14.0781C7.875 13.8594 8.19271 13.75 8.60938 13.75H9.92188C10.3385 13.75 10.651 13.8594 10.8594 14.0781C11.0677 14.2865 11.1719 14.5938 11.1719 15V37.3906H8.60938C8.19271 37.3906 7.875 37.2865 7.65625 37.0781C7.44792 36.8698 7.34375 36.5573 7.34375 36.1406ZM14.5312 37.3906V20.6719C14.5312 20.2656 14.6354 19.9583 14.8438 19.75C15.0625 19.5312 15.3802 19.4219 15.7969 19.4219H21.4844C21.901 19.4219 22.2135 19.5312 22.4219 19.75C22.6302 19.9583 22.7344 20.2656 22.7344 20.6719V37.3906H14.5312ZM26.0938 37.3906V10.5312C26.0938 10.125 26.1979 9.81771 26.4062 9.60938C26.625 9.39062 26.9427 9.28125 27.3594 9.28125H29.625C30.0521 9.28125 30.3698 9.39062 30.5781 9.60938C30.7865 9.81771 30.8906 10.125 30.8906 10.5312V36.1406C30.8906 36.5573 30.7865 36.8698 30.5781 37.0781C30.3698 37.2865 30.0521 37.3906 29.625 37.3906H26.0938ZM15.75 22.2812C15.75 22.5729 15.849 22.8229 16.0469 23.0312C16.2448 23.2292 16.4948 23.3281 16.7969 23.3281H20.5469C20.849 23.3281 21.099 23.2292 21.2969 23.0312C21.4948 22.8229 21.5938 22.5729 21.5938 22.2812C21.5938 21.9896 21.4948 21.7448 21.2969 21.5469C21.099 21.349 20.849 21.25 20.5469 21.25H16.7969C16.4948 21.25 16.2448 21.349 16.0469 21.5469C15.849 21.7448 15.75 21.9896 15.75 22.2812ZM15.75 34.5312C15.75 34.8229 15.849 35.0677 16.0469 35.2656C16.2448 35.474 16.4948 35.5781 16.7969 35.5781H20.5469C20.849 35.5781 21.099 35.474 21.2969 35.2656C21.4948 35.0677 21.5938 34.8229 21.5938 34.5312C21.5938 34.2396 21.4948 33.9948 21.2969 33.7969C21.099 33.599 20.849 33.5 20.5469 33.5H16.7969C16.4948 33.5 16.2448 33.599 16.0469 33.7969C15.849 33.9948 15.75 34.2396 15.75 34.5312ZM34.7031 37.2188C34.8594 38.5625 35.3073 39.5417 36.0469 40.1562C36.7865 40.7812 37.8281 41.0104 39.1719 40.8438L41.2344 40.6094C42.5885 40.4427 43.5625 39.9896 44.1562 39.25C44.75 38.5104 44.974 37.474 44.8281 36.1406L42.4062 13.7188C42.2708 12.375 41.8281 11.3958 41.0781 10.7812C40.3385 10.1562 39.2917 9.92708 37.9375 10.0938L35.8906 10.3281C34.526 10.4948 33.5469 10.9479 32.9531 11.6875C32.3594 12.4271 32.1354 13.4635 32.2812 14.7969L34.7031 37.2188ZM38 36.3438L35.6875 14.9844C35.6458 14.5781 35.7135 14.2656 35.8906 14.0469C36.0781 13.8177 36.3802 13.6719 36.7969 13.6094L37.7188 13.5C38.1354 13.4375 38.4583 13.5052 38.6875 13.7031C38.9271 13.901 39.0729 14.1979 39.125 14.5938L41.4375 35.9531C41.4792 36.3594 41.4062 36.6771 41.2188 36.9062C41.0417 37.1354 40.7448 37.2708 40.3281 37.3125L39.3906 37.4375C38.974 37.5 38.6458 37.4323 38.4062 37.2344C38.1771 37.0469 38.0417 36.75 38 36.3438Z" fill="#379544"/>
</svg>
