<svg width="24" height="24" viewBox="0 0 24 24" fill="none" xmlns="http://www.w3.org/2000/svg">
<path fill-rule="evenodd" clip-rule="evenodd" d="M22.5 12C22.5 17.799 17.799 22.5 12 22.5C6.20101 22.5 1.5 17.799 1.5 12C1.5 6.20101 6.20101 1.5 12 1.5C17.799 1.5 22.5 6.20101 22.5 12ZM17.4026 18.5625C15.9339 19.773 14.0518 20.5 12 20.5C9.94816 20.5 8.06612 19.773 6.59744 18.5625H17.4026ZM18.5625 17.4026C19.773 15.9339 20.5 14.0518 20.5 12C20.5 9.94816 19.773 8.06612 18.5625 6.59744V17.4026ZM17.4026 5.4375H6.59744C8.06612 4.22702 9.94816 3.5 12 3.5C14.0518 3.5 15.9339 4.22702 17.4026 5.4375ZM5.4375 6.59744C4.22702 8.06612 3.5 9.94816 3.5 12C3.5 14.0518 4.22702 15.9339 5.4375 17.4026V6.59744ZM13.1337 16.5625H16.5625V9.70482L13.1337 16.5625ZM12 14.3577L15.4601 7.4375H8.53991L12 14.3577ZM10.8663 16.5625L7.4375 9.70482V16.5625H10.8663Z" fill="#393939"/>
</svg>
